<svg width="20" height="20" viewBox="0 0 20 20" fill="none" xmlns="http://www.w3.org/2000/svg">
<rect width="20" height="20" rx="10" fill="#EFF1EC"/>
<mask id="mask0_510_201" style="mask-type:luminance" maskUnits="userSpaceOnUse" x="3" y="3" width="14" height="14">
<path d="M17 3H3V16.4374H17V3Z" fill="white"/>
</mask>
<g mask="url(#mask0_510_201)">
<path d="M7.16919 8.5553C6.94823 8.8329 6.76671 9.14504 6.63451 9.48098C6.58848 9.59596 6.54907 9.71339 6.5162 9.83415C6.5162 9.83415 6.51374 9.8399 6.51374 9.84318C6.48253 9.86948 6.44641 9.90148 6.40696 9.94093C6.40122 9.94751 6.39465 9.95408 6.38724 9.96066C6.347 10.0025 6.30264 10.0518 6.25832 10.1077C6.13427 10.2629 6.00369 10.4723 5.91335 10.7401C5.91252 10.7434 5.91085 10.7467 5.90923 10.7508C5.83366 10.9759 5.78684 11.242 5.79425 11.5508L5.78768 11.5492L5.31046 11.4128L5.0887 11.7315L4.74702 11.3865L4.36014 11.9245C4.29691 11.5549 4.21149 10.2103 5.98892 9.12203C6.03652 9.09248 6.08584 9.06373 6.13673 9.03414C6.1458 9.02923 6.15483 9.02349 6.16465 9.01854C6.20493 8.99557 6.24601 8.97339 6.2887 8.95121C6.37492 8.90439 6.46531 8.8592 6.55894 8.81401C6.7462 8.7245 6.94906 8.63828 7.16919 8.5553Z" fill="url(#paint0_radial_510_201)"/>
<path d="M6.51372 9.84412C6.49159 9.92381 6.47186 10.0043 6.45542 10.0856C6.4538 10.093 6.45297 10.1004 6.4513 10.1086C6.42588 10.2376 6.40778 10.3682 6.39713 10.502C6.39629 10.5111 6.39546 10.5193 6.39546 10.5275L5.92236 10.7197C5.92236 10.7197 5.91907 10.7263 5.91333 10.7402C6.00367 10.4725 6.1343 10.263 6.2583 10.1078C6.30266 10.0519 6.34702 10.0027 6.38726 9.96076C6.39467 9.95418 6.4012 9.94761 6.40699 9.94187C6.44639 9.90163 6.48251 9.86958 6.51372 9.84412Z" fill="#777136"/>
<path d="M7.91088 8.00244C7.89856 8.00818 7.84355 8.03199 7.76386 8.07963C7.69736 8.11987 7.61193 8.17738 7.51992 8.25379C7.43203 8.32686 7.33678 8.4172 7.24311 8.5281C7.1035 8.69484 6.96718 8.90674 6.86447 9.17369C6.86447 9.17369 6.86421 9.17421 6.86368 9.17531C6.82011 9.29033 6.78154 9.41679 6.75278 9.55399C6.70514 9.7782 6.66652 9.99338 6.63531 10.1946C6.62054 10.2883 6.60822 10.3794 6.59673 10.4673C6.58933 10.5297 6.58192 10.5905 6.57539 10.6497V10.6521C6.51542 11.2172 6.52691 11.6246 6.5803 11.7741C6.58442 11.7881 6.58933 11.7996 6.59507 11.8086C6.59919 11.816 6.60081 11.8226 6.59919 11.8275C6.59673 11.8415 6.57539 11.8472 6.54089 11.8472C6.29529 11.8488 5.36303 11.5556 5.30473 11.5376H5.30227L5.11089 11.9868L4.75277 11.6591L4.69609 11.6073L4.65011 11.5655L4.24436 12.2727L3.75401 12.6891C3.75401 12.6891 3.40247 11.4792 3.8189 10.639C3.85093 10.5749 3.88296 10.5133 3.91582 10.4525C4.31912 9.71495 4.84232 9.21064 5.67679 8.70304C5.74662 8.66035 5.81973 8.62011 5.89447 8.58232C5.89447 8.58806 5.89609 8.59381 5.89693 8.59955C5.9035 8.64965 5.91091 8.69975 5.91994 8.75069C5.13141 9.10469 4.55403 9.58108 4.19426 10.1757C3.66284 11.0538 3.75976 11.9753 3.84518 12.3942C3.90432 12.3523 3.96756 12.3121 4.03327 12.2759C4.07188 12.2538 4.1113 12.234 4.15072 12.2151L4.36015 11.9244L4.74703 11.3864L5.08871 11.7314L5.31047 11.4127L5.78769 11.549L5.79427 11.5507C5.78686 11.2419 5.83367 10.9757 5.90924 10.7507C5.91091 10.7466 5.91253 10.7433 5.91336 10.74C5.91911 10.7261 5.92239 10.7195 5.92239 10.7195L6.39549 10.5273C6.39549 10.5191 6.39633 10.5108 6.39711 10.5026C6.40781 10.3679 6.42587 10.2374 6.45134 10.1084C6.453 10.1002 6.45379 10.0928 6.45546 10.0854C6.4719 10.0041 6.49158 9.9236 6.51376 9.84391C6.51376 9.83979 6.51459 9.83816 6.51621 9.83488C6.54909 9.71333 6.58849 9.59585 6.63452 9.48087C6.76672 9.14493 6.94828 8.83283 7.16921 8.55519H7.17004C7.24723 8.45748 7.33021 8.36381 7.41726 8.27513H7.4181C7.42713 8.26527 7.43699 8.25541 7.44681 8.24554C7.50432 8.18803 7.56345 8.13302 7.62425 8.08047H7.62508C7.64231 8.06486 7.65874 8.05009 7.67597 8.03611C7.72362 8.0287 7.76386 8.02212 7.79757 8.01721H7.79836C7.86078 8.00818 7.90023 8.00323 7.91088 8.00244Z" fill="url(#paint1_radial_510_201)"/>
<path d="M7.4173 8.27539C7.33025 8.36411 7.24727 8.45774 7.17008 8.55549H7.16924C6.94911 8.63842 6.74625 8.72469 6.55899 8.8142C6.46536 8.85939 6.37497 8.90458 6.28875 8.9514C6.24606 8.97358 6.20498 8.99571 6.16474 9.01873C6.15488 9.02368 6.14585 9.02942 6.13678 9.03433C6.08589 9.06392 6.03657 9.09263 5.98897 9.12222C4.21154 10.2105 4.29696 11.5551 4.36019 11.9247L4.15076 12.2155C4.11133 12.2343 4.07191 12.2541 4.0333 12.2762C3.9676 12.3124 3.90435 12.3526 3.84522 12.3945C3.75979 11.9756 3.66288 11.0541 4.19429 10.176C4.55407 9.58138 5.13145 9.10499 5.91998 8.75099C5.97337 8.72631 6.02754 8.70334 6.0826 8.68116C6.09163 8.67621 6.10066 8.67292 6.11052 8.66963C6.14993 8.65241 6.19017 8.6368 6.23124 8.62203C6.33228 8.58258 6.4366 8.54479 6.54417 8.5103C6.81607 8.41996 7.10682 8.34193 7.4173 8.27539Z" fill="url(#paint2_radial_510_201)"/>
<path d="M5.89684 8.59973C5.90341 8.64983 5.91082 8.69994 5.91985 8.75087C5.13137 9.10487 4.55394 9.58126 4.19419 10.1759C3.66277 11.054 3.75969 11.9755 3.84511 12.3944C3.90425 12.3525 3.9675 12.3122 4.0332 12.2761C4.07181 12.254 4.11123 12.2342 4.15066 12.2153L4.36011 11.9246C4.37076 11.9878 4.38062 12.0223 4.38062 12.0223L4.24429 12.2728L3.76134 12.5332C3.76134 12.5332 3.48946 11.5911 3.71287 10.9619C3.76708 10.8092 3.83115 10.6359 3.91575 10.4527C4.18105 9.88104 4.65086 9.20508 5.67675 8.70322C5.75232 8.66627 5.82539 8.63177 5.89684 8.59973Z" fill="url(#paint3_radial_510_201)"/>
<path d="M7.77048 8.07387L7.76391 8.07961L7.59471 8.23895L7.31299 8.50261C7.28914 8.5108 7.26613 8.51983 7.24316 8.52807C7.21769 8.5371 7.19389 8.54613 7.17004 8.55516C7.24728 8.45741 7.33021 8.36378 7.41727 8.27506H7.4181C7.42713 8.26525 7.43699 8.25538 7.44686 8.24552C7.50432 8.18801 7.5635 8.133 7.62425 8.08044H7.62508C7.65301 8.07794 7.67681 8.07632 7.69653 8.07549C7.7458 8.07303 7.77048 8.07387 7.77048 8.07387Z" fill="url(#paint4_radial_510_201)"/>
<path d="M5.11914 15.127C5.11914 15.127 5.96759 16.0584 6.90231 16.143C7.83702 16.2276 8.58281 16.0526 9.52323 15.5705C10.4637 15.0884 11.29 14.0296 11.29 14.0296C11.29 14.0296 10.4974 14.612 9.35981 14.2087C8.22302 13.8054 7.44686 13.3389 7.35485 13.1656C7.26289 12.9914 6.91217 14.4099 6.91217 14.4099L6.42837 14.3377L6.54664 14.9504L5.73185 14.9274L5.11997 15.1278L5.11914 15.127Z" fill="url(#paint5_radial_510_201)"/>
<path d="M6.65178 13.6401C6.65178 13.6401 6.40618 12.7514 6.13761 12.542C5.86899 12.3325 5.7417 12.2676 5.7417 12.2676L6.72077 12.2142L7.16345 12.9033L6.65257 13.6409L6.65178 13.6401Z" fill="#FFF6F6"/>
<path d="M5.77612 15.0087L6.71084 14.9644L6.47593 14.4239L6.95723 14.4904L7.39995 13.2461L7.16833 12.8346L6.52191 13.7701L5.77612 15.0087Z" fill="url(#paint6_linear_510_201)"/>
<path d="M4.24438 12.2725L4.77006 11.4988L5.10846 11.9809L5.30313 11.5366L6.59509 11.8084L6.82509 12.2216L5.68913 12.284L4.24438 12.2725Z" fill="url(#paint7_linear_510_201)"/>
<path d="M5.47852 14.8567C6.24557 14.4272 6.58059 13.5669 6.22685 12.9352C5.87307 12.3035 4.96452 12.1397 4.19749 12.5693C3.43046 12.9988 3.09543 13.8591 3.44919 14.4908C3.80294 15.1225 4.71151 15.2863 5.47852 14.8567Z" fill="url(#paint8_radial_510_201)"/>
<path d="M6.04068 14.9866C6.04068 14.9866 7.60866 16.7106 10.5737 14.3255L11.1782 14.1595C11.1782 14.1595 10.8218 14.8068 9.54788 15.6158C8.27477 16.4248 7.24809 16.2482 6.59592 16.1102C5.94293 15.9723 5.28174 15.2478 5.28174 15.2478L5.7565 14.9727L6.04151 14.9874L6.04068 14.9866Z" fill="url(#paint9_radial_510_201)"/>
<path d="M7.35395 13.1639L7.35724 13.1664C7.35724 13.1664 7.36303 13.1713 7.3671 13.1737C7.45666 13.2469 7.98643 13.6715 8.45296 13.9828L8.45787 13.9861C8.66897 14.1265 8.86609 14.2432 9.00492 14.2941C9.00492 14.2941 8.58766 14.4994 7.95601 14.3491C7.78353 14.3089 7.59627 14.2415 7.39752 14.1364C7.31293 14.0928 7.22666 14.0411 7.13794 13.9819L7.35479 13.1631L7.35395 13.1639Z" fill="#777136"/>
<path d="M6.60409 11.7814C6.60571 11.8126 6.60655 11.8298 6.60655 11.8298L6.59918 11.8274L6.52852 11.8069L5.79505 11.5867C5.79505 11.5752 5.79422 11.5629 5.79422 11.5522V11.5506C5.78685 11.2417 5.83367 10.9756 5.90924 10.7506C5.91086 10.7465 5.91252 10.7432 5.91331 10.7399C5.9191 10.7259 5.92234 10.7194 5.92234 10.7194L6.39549 10.5272C6.39549 10.519 6.39628 10.5107 6.39711 10.5025C6.4078 10.3678 6.42586 10.2372 6.45133 10.1083C6.45295 10.1 6.45379 10.0927 6.45541 10.0853C6.47185 10.004 6.49157 9.92348 6.51375 9.84379C6.51375 9.84379 6.51621 9.8405 6.51783 9.83971C6.5614 9.80272 6.59423 9.77892 6.6115 9.76743C6.61558 9.76414 6.61803 9.76248 6.62053 9.76086C6.62382 9.7584 6.62544 9.75757 6.62544 9.75757C6.609 9.83643 6.59835 9.94321 6.59011 10.0664V10.068C6.58191 10.1904 6.57779 10.3292 6.577 10.4746C6.57534 10.5321 6.57534 10.5904 6.57534 10.6495V10.652C6.57534 11.1317 6.59668 11.6278 6.60409 11.7814Z" fill="#777136"/>
<path d="M8.06122 8.15227L8.04316 8.03479L8.02261 7.89926H8.02177L8.01195 7.83276C8.00043 7.83439 7.98894 7.83605 7.97825 7.83851C7.95935 7.84096 7.94129 7.84342 7.92323 7.8467C7.8378 7.90583 7.75566 7.96992 7.67601 8.03646C7.65874 8.0504 7.64235 8.06517 7.62507 8.08078H7.62424C7.56349 8.13338 7.50436 8.18839 7.44685 8.2459C7.43698 8.25576 7.42712 8.26562 7.41809 8.27544C7.45176 8.26725 7.48546 8.26067 7.51996 8.2541C7.5446 8.24835 7.56923 8.24344 7.5947 8.23932C7.67356 8.22289 7.7532 8.20811 7.83451 8.19413H7.83535C7.9068 8.18181 7.97825 8.17033 8.05219 8.15884C8.05548 8.15801 8.05877 8.15801 8.06206 8.15718V8.15227H8.06122Z" fill="#777136"/>
<path d="M4.75357 15.0886C4.74371 15.0902 4.73385 15.091 4.72399 15.091C4.19998 15.1247 3.71127 14.9062 3.47143 14.4775C3.22913 14.0446 3.30305 13.5075 3.61435 13.0762C3.61435 13.0762 3.61463 13.0757 3.61517 13.0746C3.62338 13.0631 3.6316 13.0516 3.64063 13.0409C3.64967 13.0286 3.65871 13.0171 3.66938 13.0056C3.8049 12.8331 3.98314 12.6812 4.19341 12.5629C4.42832 12.4315 4.67717 12.3584 4.91865 12.3387C4.93592 12.3362 4.95315 12.3354 4.97042 12.3346C4.98107 12.3337 4.99093 12.3337 5.00163 12.3329C5.50594 12.3165 5.97084 12.5342 6.20325 12.9481C6.43737 13.367 6.37574 13.8845 6.09073 14.3083C6.07429 14.3321 6.0579 14.3559 6.03979 14.3789C5.89856 14.5687 5.70964 14.7362 5.48209 14.8635C5.24719 14.9949 4.99668 15.0689 4.75357 15.0886ZM11.501 14.0726L11.4624 14.0397L11.3392 13.9354L11.2595 13.868C11.2143 13.9214 11.1692 13.974 11.124 14.0249C11.0739 14.0824 11.0238 14.1383 10.9737 14.1933C10.9647 14.2032 10.9556 14.213 10.9466 14.2229C10.9244 14.2467 10.9031 14.2705 10.8817 14.2927C10.6698 14.5194 10.4587 14.7239 10.2476 14.9071C10.1655 14.9793 10.0825 15.0483 10.0004 15.114C9.96508 15.142 9.92975 15.1699 9.89442 15.1962C9.88706 15.2027 9.87882 15.2085 9.87145 15.2134C9.8238 15.2496 9.77616 15.2849 9.72934 15.3186C8.98272 15.8491 8.24267 16.1145 7.51827 16.1103C6.49155 16.1046 5.75562 15.5411 5.44352 15.2487C5.51006 15.22 5.57739 15.1871 5.6431 15.1502C5.68579 15.1264 5.72686 15.1017 5.76715 15.0754L6.10633 15.05L6.77081 15.0007L6.655 14.5292L7.0435 14.5062L7.17904 14.0216L7.18149 14.0118L7.37616 13.3144V13.3128L7.38357 13.2881L7.39667 13.2405L7.40079 13.2241L7.40575 13.2068L7.4427 13.0746L7.28415 13.0311L7.28253 13.0376L7.25294 13.1428L6.91704 14.3494L6.62625 14.3666H6.62546L6.44968 14.3773L6.56549 14.8512L6.52604 14.8537L6.00858 14.8915C6.18274 14.7403 6.32647 14.5645 6.43408 14.3765C6.44144 14.365 6.44802 14.3535 6.45376 14.3411C6.57536 14.1202 6.64843 13.8828 6.66899 13.6446L6.67227 13.5535V13.5518L6.6739 13.4894C6.67227 13.2471 6.61231 13.0073 6.48992 12.788C6.36837 12.5711 6.19751 12.3962 5.99464 12.268C5.56345 11.9929 4.98765 11.9255 4.4349 12.1013L4.75274 11.6594L4.76672 11.6397L5.11086 11.9871L5.3786 11.6027L6.5704 11.9428H6.57124L6.68788 11.9765H6.68867L6.69524 11.9781L6.74044 11.8204L6.60407 11.7818L6.58027 11.7744L6.51373 11.7555L5.91333 11.5847L5.90759 11.583L5.79424 11.551L5.78766 11.5493L5.31044 11.413L5.08868 11.7317L4.747 11.3867L4.36016 11.9247L4.15069 12.2155C4.11127 12.2344 4.07185 12.2541 4.03324 12.2762C3.96753 12.3124 3.90429 12.3526 3.84515 12.3945C3.75973 11.9756 3.66281 11.0541 4.19423 10.1761C4.554 9.58137 5.13138 9.10498 5.91991 8.75097C5.9733 8.72634 6.02748 8.70337 6.08253 8.68119C6.09156 8.67624 6.10059 8.67295 6.11045 8.66966C6.14986 8.65244 6.19014 8.63683 6.23117 8.62206C6.33221 8.58261 6.43653 8.54482 6.54415 8.51033C6.81601 8.41998 7.10676 8.34196 7.41723 8.27542H7.41806C7.42709 8.26556 7.43696 8.25574 7.44678 8.24588C7.50429 8.18837 7.56342 8.13335 7.62422 8.08075H7.62505C7.64228 8.06515 7.65871 8.05038 7.67594 8.03639C7.75563 7.9699 7.83777 7.90581 7.92316 7.84668C7.78846 7.86803 7.65626 7.89187 7.5273 7.9173C7.1782 7.9855 6.85134 8.06765 6.5466 8.16456C6.42422 8.20152 6.30595 8.24259 6.19093 8.28528C6.15481 8.29843 6.11865 8.31237 6.08253 8.32719C6.07105 8.33126 6.05869 8.33538 6.0472 8.34113C5.98807 8.36331 5.93056 8.38715 5.87388 8.41258C4.97616 8.79862 4.31909 9.33335 3.91086 10.0101C3.23324 11.1354 3.46733 12.2869 3.56178 12.6319C3.00408 13.1904 2.82831 14.0003 3.18478 14.6385C3.54207 15.2758 4.32483 15.5494 5.0928 15.3662C5.33836 15.6274 6.19751 16.429 7.51086 16.4381C8.33468 16.4446 9.16752 16.1391 9.99958 15.5272C10.0488 15.491 10.0989 15.4533 10.1482 15.4147C10.1573 15.4081 10.1663 15.4007 10.1754 15.3933C10.2066 15.3687 10.2386 15.3432 10.2698 15.3177C10.3626 15.2422 10.4554 15.1625 10.5482 15.0795C10.784 14.8684 11.0189 14.6335 11.253 14.374C11.3384 14.2795 11.4246 14.181 11.5101 14.08L11.501 14.0726Z" fill="#777136"/>
<path d="M8.45298 13.9838L7.95608 14.3501C7.95608 14.3501 7.5585 14.2754 7.17908 14.0224L7.39259 13.3037L8.45298 13.9838Z" fill="url(#paint10_radial_510_201)"/>
<path d="M6.52033 11.7469L6.51047 11.7444L5.91336 11.5843L5.90758 11.5827L5.79427 11.5522L5.78769 11.5506V11.5489C5.777 11.1235 5.87308 10.8402 5.90924 10.7506C5.91086 10.7465 5.91253 10.7432 5.91336 10.7399C5.91911 10.726 5.92239 10.7194 5.92239 10.7194L6.39549 10.5272L6.40536 10.5231L6.49486 10.4869V10.505L6.52033 11.7469Z" fill="url(#paint11_radial_510_201)"/>
<path d="M16.246 12.6897C16.246 12.6897 16.5967 11.4798 16.1803 10.6387C15.7638 9.79768 15.225 9.25313 14.3224 8.70363C13.4205 8.15413 12.0858 8.0022 12.0858 8.0022C12.0858 8.0022 12.9967 8.37426 13.2464 9.55453C13.4969 10.7349 13.5043 11.64 13.4041 11.8092C13.3039 11.9784 14.6961 11.5365 14.6961 11.5365L14.8875 11.9866L15.3482 11.566L15.754 12.2732L16.2443 12.6897H16.246Z" fill="url(#paint12_radial_510_201)"/>
<path d="M15.6193 12.0225C15.6193 12.0225 16.2699 9.78514 12.6871 8.503L12.2296 8.07426C12.2296 8.07426 12.968 8.0406 14.3233 8.70341C15.6785 9.36627 16.0637 10.3338 16.2871 10.9622C16.5105 11.5905 16.2387 12.5334 16.2387 12.5334L15.7557 12.273L15.6193 12.0225Z" fill="url(#paint13_radial_510_201)"/>
<path d="M14.8818 15.1272C14.8818 15.1272 14.0333 16.0586 13.0986 16.1432C12.1639 16.2278 11.4181 16.0529 10.4777 15.5707C9.53721 15.0886 8.71094 14.0299 8.71094 14.0299C8.71094 14.0299 9.50354 14.6122 10.6411 14.2089C11.7779 13.8057 12.5541 13.3391 12.646 13.1658C12.7381 12.9917 13.0888 14.4102 13.0888 14.4102L13.5726 14.3379L13.4543 14.9506L14.269 14.9276L14.881 15.128L14.8818 15.1272Z" fill="url(#paint14_radial_510_201)"/>
<path d="M13.3319 13.6405C13.3319 13.6405 13.5775 12.7518 13.8461 12.5423C14.1147 12.3329 14.2419 12.268 14.2419 12.268L13.2629 12.2146L12.8202 12.9038L13.3311 13.6413L13.3319 13.6405Z" fill="#FFF6F6"/>
<path d="M14.2238 15.009L13.2891 14.9646L13.524 14.4242L13.0427 14.4907L12.6 13.2464L12.8316 12.8348L13.4788 13.7703L14.2238 15.009Z" fill="url(#paint15_linear_510_201)"/>
<path d="M15.7557 12.2734L15.23 11.4996L14.8924 11.9818L14.6977 11.5374L13.4049 11.8093L13.1749 12.2225L14.3109 12.2849L15.7557 12.2734Z" fill="url(#paint16_linear_510_201)"/>
<path d="M16.5519 14.4914C16.9057 13.8597 16.5706 12.9994 15.8036 12.5699C15.0366 12.1403 14.128 12.3042 13.7743 12.9358C13.4205 13.5675 13.7555 14.4278 14.5225 14.8573C15.2896 15.2869 16.1981 15.123 16.5519 14.4914Z" fill="url(#paint17_radial_510_201)"/>
<path d="M13.9593 14.9865C13.9593 14.9865 12.3914 16.7106 9.42629 14.3253L8.82178 14.1594C8.82178 14.1594 9.17824 14.8067 10.4521 15.6157C11.7253 16.4247 12.7519 16.2482 13.4041 16.1102C14.0571 15.9722 14.7183 15.2477 14.7183 15.2477L14.2435 14.9726L13.9585 14.9874L13.9593 14.9865Z" fill="url(#paint18_radial_510_201)"/>
<path d="M12.646 13.1643L12.6427 13.1667C12.6427 13.1667 12.637 13.1717 12.6329 13.1741C12.5434 13.2472 12.0136 13.6719 11.5471 13.9831L11.5421 13.9864C11.3311 14.1269 11.1339 14.2435 10.9951 14.2945C10.9951 14.2945 11.4124 14.4998 12.044 14.3495C12.2165 14.3092 12.4037 14.2419 12.6025 14.1367C12.6871 14.0932 12.7733 14.0415 12.862 13.9824L12.6452 13.1635L12.646 13.1643Z" fill="#335681"/>
<path d="M13.3746 9.75803C13.3746 9.75803 14.2518 10.3108 14.2042 11.5864L13.3927 11.8295C13.3927 11.8295 13.474 10.2558 13.3738 9.7572L13.3746 9.75803Z" fill="#335681"/>
<path d="M13.3311 13.6447C13.3696 14.0997 13.6029 14.5539 13.9914 14.8915L13.4353 14.8512L13.5511 14.3765L13.0838 14.3494L12.7158 13.0311L12.5573 13.0754L12.9565 14.5071L13.345 14.5301L13.2292 15.0024L14.2329 15.0763C14.2731 15.1026 14.3142 15.1272 14.3577 15.1518C14.4226 15.188 14.49 15.2217 14.5565 15.2504C14.2444 15.5428 13.5085 16.1062 12.4826 16.112C11.2637 16.1194 10.0045 15.3646 8.7405 13.8697L8.48999 14.0816C9.8214 15.6561 11.1668 16.4504 12.49 16.4406C13.8025 16.4315 14.6625 15.6291 14.9072 15.3687C15.6752 15.5518 16.458 15.2791 16.8152 14.641C17.1725 14.0028 16.9968 13.1929 16.4382 12.6344C16.5327 12.2894 16.7676 11.137 16.09 10.0126C15.4074 8.87994 14.0275 8.14647 11.9889 7.83521L11.9388 8.15962C13.8739 8.45616 15.1758 9.13541 15.8058 10.1785C16.3372 11.0566 16.2411 11.9781 16.1549 12.397C16.0957 12.3551 16.0325 12.3149 15.9668 12.2787C15.9282 12.2574 15.8887 12.2368 15.8493 12.2188L15.2538 11.39L14.9121 11.735L14.6896 11.4155L13.2604 11.8229L13.3056 11.9806L14.6222 11.6052L14.89 11.9896L15.2341 11.643L15.5659 12.1046C14.7536 11.8467 13.892 12.112 13.5117 12.7904C13.3885 13.0097 13.3294 13.2496 13.3269 13.4919L13.3318 13.6471L13.3311 13.6447ZM15.8066 12.5629C16.5598 12.9851 16.8834 13.8434 16.5286 14.4783C16.1729 15.1132 15.2711 15.2857 14.5179 14.8644C13.7655 14.443 13.4419 13.5839 13.7976 12.949C14.1524 12.3149 15.0543 12.1416 15.8066 12.5629Z" fill="#1C4372"/>
<path d="M11.547 13.9837L12.0439 14.35C12.0439 14.35 12.4415 14.2753 12.8209 14.0223L12.6074 13.3036L11.547 13.9837Z" fill="#1C4372"/>
<path d="M13.5052 10.4875L14.0768 10.72C14.0768 10.72 14.2255 11.028 14.2116 11.5512L13.4789 11.7475L13.5052 10.4875Z" fill="#1C4372"/>
<path d="M11.4131 4.44885C11.4131 4.44885 12.6402 4.73386 13.1708 5.50841C13.7014 6.28295 13.9133 7.01888 13.9519 8.07515C13.9905 9.13142 13.4706 10.3692 13.4706 10.3692C13.4706 10.3692 13.5913 9.39262 12.6837 8.59752C11.7761 7.80246 10.9901 7.3532 10.7938 7.35811C10.5975 7.36302 11.6628 6.36343 11.6628 6.36343L11.3638 5.9766L11.956 5.78031L11.5379 5.0805L11.4139 4.44885H11.4131Z" fill="url(#paint19_radial_510_201)"/>
<path d="M11.6891 5.32165C11.6891 5.32165 13.9593 5.8473 13.3269 9.59927L13.4772 10.2079C13.4772 10.2079 13.8673 9.58038 13.9511 8.07402C14.0349 6.56763 13.3794 5.75863 12.94 5.25677C12.5006 4.75492 11.5453 4.53149 11.5453 4.53149L11.5371 5.08016L11.6891 5.32165Z" fill="url(#paint20_radial_510_201)"/>
<path d="M9.24887 7.35811H9.23572C9.21682 7.35811 9.19298 7.36223 9.16427 7.3696H9.16343C9.07388 7.39506 8.93839 7.4567 8.76836 7.5544C8.76669 7.55523 8.76507 7.55607 8.76262 7.5569C8.56383 7.67021 8.31744 7.83121 8.04308 8.03491C7.97575 8.08501 7.90592 8.1384 7.83531 8.19425H7.83448C7.67843 8.31663 7.5158 8.45133 7.34906 8.59752C7.1355 8.78482 6.97862 8.98194 6.86447 9.17411C6.86447 9.17411 6.86417 9.17468 6.86364 9.17578C6.73959 9.38359 6.66485 9.58479 6.62049 9.7614C6.59752 9.85257 6.58271 9.93717 6.57289 10.0127C6.54497 10.2296 6.56219 10.3692 6.56219 10.3692C6.56219 10.3692 6.53589 10.3059 6.49482 10.1959C6.49482 10.1959 6.49403 10.1934 6.4932 10.1926C6.48172 10.1606 6.4694 10.1244 6.45542 10.0858C6.47185 10.0045 6.49158 9.92402 6.51371 9.84438C6.51371 9.84026 6.51455 9.83859 6.51621 9.8353C6.54904 9.71375 6.58849 9.59632 6.63448 9.4813C6.76672 9.1454 6.94824 8.83326 7.16916 8.55566H7.17C7.24719 8.45791 7.33017 8.36428 7.41722 8.27556H7.41805C7.42708 8.2657 7.43695 8.25583 7.44681 8.24601C7.50427 8.1885 7.56341 8.13349 7.6242 8.08089H7.62504C7.64226 8.06529 7.6587 8.05051 7.67597 8.03653C7.75562 7.97004 7.83776 7.90595 7.9232 7.84682C7.78849 7.86817 7.65625 7.89201 7.52729 7.91743C7.17819 7.98564 6.85132 8.06774 6.54659 8.1647C6.42421 8.20165 6.30594 8.24273 6.19092 8.28542C6.1548 8.29857 6.11868 8.31251 6.08252 8.32733C6.0784 8.24189 6.07761 8.15813 6.0809 8.07432C6.11947 7.01888 6.3322 6.28212 6.86197 5.50841C7.11086 5.14537 7.51168 4.88995 7.86897 4.72075C7.87717 4.71663 7.88541 4.71335 7.89277 4.71006C7.89606 4.70844 7.89856 4.70677 7.9018 4.70594C8.29197 4.52526 8.61967 4.44885 8.61967 4.44885L8.49567 5.0805L8.44719 5.16098L8.07679 5.78031L8.16959 5.81069L8.63199 5.96428L8.66899 5.9766L8.65255 5.99795L8.54739 6.13348H8.5466L8.37 6.36343C8.37 6.36343 9.08374 7.0337 9.23405 7.27351C9.26609 7.31949 9.27429 7.35071 9.24887 7.35811Z" fill="url(#paint21_radial_510_201)"/>
<path d="M9.17822 6.45962C9.17822 6.45962 10.0735 6.67976 10.3881 6.54751C10.7026 6.41526 10.8217 6.33557 10.8217 6.33557L10.3905 7.21606L9.57247 7.26538L9.17901 6.45962H9.17822Z" fill="#EDE5EB"/>
<path d="M8.40208 5.08032L7.98315 5.91729L8.56961 5.97642L8.2764 6.36326L9.14537 7.35794L9.61847 7.3571L9.11828 6.33533L8.40208 5.08032Z" fill="url(#paint22_radial_510_201)"/>
<path d="M11.5372 5.08032L11.9561 5.91729L11.3697 5.97642L11.6629 6.36326L10.7931 7.35794L10.3208 7.3571L10.821 6.33533L11.5372 5.08032Z" fill="url(#paint23_radial_510_201)"/>
<path d="M9.99059 6.48544C10.7145 6.48544 11.3014 5.77278 11.3014 4.89365C11.3014 4.01456 10.7145 3.30188 9.99059 3.30188C9.26658 3.30188 8.67969 4.01456 8.67969 4.89365C8.67969 5.77278 9.26658 6.48544 9.99059 6.48544Z" fill="url(#paint24_radial_510_201)"/>
<path d="M6.65332 9.59934L6.61146 9.76771L6.56053 9.97469L6.50302 10.208C6.50302 10.208 6.50056 10.2039 6.49482 10.1957C6.49482 10.1957 6.49399 10.1932 6.4932 10.1924C6.48413 10.1751 6.46935 10.148 6.45129 10.1086C6.45292 10.1004 6.45375 10.093 6.45541 10.0856C6.47181 10.0043 6.49153 9.92376 6.51371 9.84411C6.51371 9.83999 6.51455 9.83837 6.51617 9.83508C6.54904 9.71349 6.58845 9.59606 6.63448 9.48108C6.64022 9.51965 6.64679 9.5591 6.65332 9.59934Z" fill="url(#paint25_radial_510_201)"/>
<path d="M8.44308 5.08016L8.4209 5.11549L8.29115 5.32165C8.29115 5.32165 8.28703 5.32248 8.27962 5.3241C8.26647 5.32822 8.24021 5.33563 8.20405 5.34795C7.86074 5.46783 6.61967 6.04692 6.54656 8.16437C6.42417 8.20132 6.30591 8.24239 6.19093 8.28508C6.15477 8.29823 6.11865 8.31222 6.08249 8.32699C6.071 8.33111 6.05868 8.33519 6.0472 8.34093C6.03979 8.25554 6.03322 8.16599 6.02831 8.07402C5.9445 6.56763 6.59995 5.75863 7.03938 5.25677C7.25049 5.01529 7.58231 4.83785 7.86894 4.72042C7.87718 4.7163 7.88538 4.71301 7.89278 4.70972C7.89607 4.7081 7.89853 4.70644 7.90181 4.70565C8.19502 4.58734 8.43405 4.53149 8.43405 4.53149L8.44308 5.08016Z" fill="url(#paint26_radial_510_201)"/>
<path d="M9.23981 7.35783L9.23568 7.3595C9.23568 7.3595 9.22911 7.36195 9.2242 7.36441C9.21351 7.36853 9.1979 7.3751 9.17739 7.3833C9.0977 7.41534 8.94822 7.47693 8.76833 7.55412C8.76671 7.55495 8.76508 7.55578 8.76258 7.55662C8.53837 7.65353 8.26652 7.77592 8.02254 7.89909C8.01105 7.90488 7.99957 7.91062 7.98808 7.91636L7.98313 7.91882C7.91825 7.95169 7.85662 7.98452 7.79833 8.0174H7.79749C7.76221 8.03708 7.7285 8.05681 7.6965 8.0757C7.5938 8.13566 7.50758 8.19396 7.44678 8.24573C7.50429 8.18822 7.56342 8.13321 7.62422 8.08061H7.62501C7.64228 8.065 7.65871 8.05023 7.67594 8.03629C7.75563 7.96975 7.83773 7.90567 7.92316 7.84654C7.78846 7.86788 7.65622 7.89173 7.5273 7.9172C7.59134 7.74633 7.70632 7.52703 7.91168 7.30361C7.91168 7.30361 7.91251 7.30199 7.9158 7.29953C7.91826 7.29624 7.92154 7.29296 7.924 7.28967C7.92562 7.28721 7.92812 7.28472 7.93057 7.28226C8.04721 7.15909 8.19095 7.03587 8.37001 6.92006C8.4365 6.87653 8.508 6.83463 8.58436 6.79356C8.59996 6.78536 8.61557 6.77712 8.63117 6.76892L9.16836 7.28884L9.23981 7.35783Z" fill="#244C0F"/>
<path d="M12.5679 8.38617C12.5679 8.38617 12.5145 7.35126 11.3778 6.76892L10.7692 7.35783C10.7692 7.35783 12.1819 8.05597 12.5679 8.38617Z" fill="#244C0F"/>
<path d="M8.83737 4.1356C8.83737 4.1356 8.83983 4.12985 8.84149 4.12657C8.84149 4.12657 8.84149 4.12494 8.84312 4.12411C9.06982 3.65018 9.49856 3.32903 9.99056 3.32903C10.4825 3.32903 10.9113 3.65018 11.1372 4.12411C11.138 4.12494 11.1388 4.12657 11.1388 4.12657C11.1405 4.12985 11.1421 4.13231 11.1429 4.1356C11.2489 4.36064 11.3088 4.61939 11.3088 4.89454C11.3088 5.16968 11.2489 5.4276 11.1429 5.65264C11.1421 5.65593 11.1405 5.65839 11.1388 5.66167C11.1388 5.66167 11.138 5.66334 11.1372 5.66413C10.9113 6.13806 10.4817 6.45923 9.99056 6.45923C9.4994 6.45923 9.06982 6.13806 8.84312 5.66413C8.84228 5.66334 8.84149 5.66167 8.84149 5.66167C8.83983 5.65839 8.83821 5.65593 8.83737 5.65264C8.73143 5.4276 8.67146 5.16968 8.67146 4.89454C8.67146 4.61939 8.73143 4.36064 8.83737 4.1356ZM13.6743 5.89496C13.0238 4.75409 11.9043 4.39597 11.5569 4.30975C11.3425 3.54997 10.7216 3.00049 9.99056 3.00049C9.25954 3.00049 8.63859 3.54997 8.4234 4.30975C8.07598 4.39597 6.95646 4.75409 6.30675 5.89496C5.91168 6.58736 5.76794 7.43007 5.87393 8.41239C5.93057 8.38692 5.98808 8.36312 6.04721 8.34094C6.05874 8.3352 6.07106 8.33108 6.08254 8.327C6.11866 8.31218 6.15482 8.29824 6.19094 8.28509C6.11046 7.41446 6.24354 6.67029 6.5893 6.06166C7.09611 5.16885 7.94702 4.80253 8.35441 4.67278C8.347 4.74506 8.34293 4.8198 8.34293 4.89454C8.34293 4.94381 8.34455 4.99229 8.34784 5.03993L8.2041 5.34791L7.92238 5.95164L8.39053 6.08138L8.22054 6.43131L8.577 6.7861L8.58441 6.79351L9.09854 7.30523L9.10103 7.30685L9.16345 7.36927H9.16429L9.17739 7.38325L9.27431 7.47934L9.39012 7.3627L9.38438 7.35695L9.28913 7.26166L8.41928 6.3976L8.54662 6.13394H8.54741L8.62381 5.97627L8.15317 5.84565L8.16961 5.81036L8.38974 5.34055C8.43734 5.56721 8.52032 5.77748 8.63201 5.96395C8.63859 5.97544 8.64516 5.98613 8.65257 5.99762C8.78644 6.21118 8.9573 6.39186 9.15521 6.52573L9.23407 6.57338L9.28829 6.60625C9.50102 6.72285 9.73921 6.78777 9.99056 6.78777C10.2419 6.78777 10.4751 6.72452 10.6862 6.61033C11.1363 6.36806 11.4764 5.89825 11.593 5.33068L11.823 5.82347L11.8337 5.84565L11.363 5.97627L11.5676 6.3976L10.6969 7.26332L10.6016 7.35779L10.5967 7.3627L10.7125 7.47934L10.8308 7.36107L10.8867 7.30602L11.2949 6.90029L11.2982 6.897L11.4099 6.7861L11.4148 6.78119L11.7663 6.43131L11.5963 6.08138L12.0645 5.95164L11.7836 5.3512L11.6333 5.02678C11.6366 4.98326 11.6382 4.9389 11.6382 4.89454C11.6382 4.8198 11.6341 4.74506 11.6267 4.67278C12.0341 4.80253 12.885 5.16885 13.3918 6.06166C13.7367 6.66867 13.8698 7.41034 13.791 8.27852C13.7868 8.32862 13.7811 8.37956 13.7745 8.43128C13.7745 8.43952 13.7737 8.44772 13.7721 8.45591C13.7663 8.50768 13.7589 8.56107 13.7507 8.61446C13.7351 8.72124 13.7162 8.83048 13.694 8.94133C13.639 9.22472 13.5635 9.51959 13.4673 9.82678C13.4673 9.82678 13.4665 9.83169 13.4649 9.83419C13.4583 9.85799 13.4509 9.881 13.4435 9.9048V9.90643C13.4361 9.92944 13.4288 9.95162 13.4205 9.97463C13.4164 9.98857 13.4123 10.0017 13.4074 10.0157C13.3918 10.0625 13.3762 10.1085 13.3598 10.1561C13.3293 10.2448 13.2973 10.3327 13.2636 10.4223L13.4049 10.4748L13.4246 10.4822L13.5051 10.5126L13.5708 10.5372C13.5733 10.5307 13.5758 10.5233 13.5782 10.5167C13.5807 10.5118 13.5824 10.5077 13.584 10.5027C13.6357 10.3623 13.6842 10.2251 13.7285 10.0896C13.8402 9.75121 13.929 9.42513 13.9947 9.11136C14.0217 8.98653 14.0439 8.86414 14.0628 8.74342C14.0719 8.69165 14.0793 8.64155 14.0858 8.59145C14.0867 8.58487 14.0875 8.5783 14.0883 8.57256C14.0957 8.51588 14.1031 8.46004 14.1088 8.40502C14.2131 7.42511 14.0686 6.58569 13.6752 5.89496H13.6743ZM6.63533 10.1947C6.61972 10.152 6.60491 10.1101 6.59014 10.0683V10.0666L6.57287 10.0124C6.56796 10.0001 6.56384 9.98695 6.56055 9.97463C6.54494 9.92944 6.53101 9.88429 6.51785 9.83993C6.51623 9.83826 6.51623 9.83664 6.51623 9.83498C6.51457 9.83826 6.51373 9.83993 6.51373 9.84322C6.49155 9.9237 6.47187 10.0042 6.45544 10.0855C6.45377 10.0929 6.45298 10.1003 6.45131 10.1085C6.42585 10.2375 6.40779 10.368 6.39714 10.5019C6.39959 10.5093 6.40205 10.5159 6.40533 10.5233C6.40696 10.5282 6.40862 10.5323 6.41024 10.5372L6.49484 10.5052L6.57699 10.4748L6.59671 10.4674L6.71743 10.4223C6.68872 10.3459 6.66159 10.2695 6.63533 10.1947Z" fill="#244C0F"/>
<path d="M7.98815 7.91643L7.91174 7.30371C7.91174 7.30371 8.17128 6.99324 8.57784 6.78625L9.10026 7.32344L7.98815 7.91643Z" fill="url(#paint27_linear_510_201)"/>
<path d="M11.9955 7.9169L12.0719 7.30419C12.0719 7.30419 11.8756 7.02409 11.4124 6.78015L10.8834 7.32387L11.9955 7.9169Z" fill="url(#paint28_linear_510_201)"/>
<path d="M11.4131 4.44885C11.4131 4.44885 12.6402 4.73386 13.1708 5.50841C13.7014 6.28295 13.9133 7.01888 13.9519 8.07515C13.9905 9.13142 13.4706 10.3692 13.4706 10.3692C13.4706 10.3692 13.5913 9.39262 12.6837 8.59752C11.7761 7.80246 10.9901 7.3532 10.7938 7.35811C10.5975 7.36302 11.6628 6.36343 11.6628 6.36343L11.3638 5.9766L11.956 5.78031L11.5379 5.0805L11.4139 4.44885H11.4131Z" fill="url(#paint29_radial_510_201)"/>
<path d="M11.6891 5.32165C11.6891 5.32165 13.9593 5.8473 13.3269 9.59927L13.4772 10.2079C13.4772 10.2079 13.8673 9.58038 13.9511 8.07402C14.0349 6.56763 13.3794 5.75863 12.94 5.25677C12.5006 4.75492 11.5453 4.53149 11.5453 4.53149L11.5371 5.08016L11.6891 5.32165Z" fill="url(#paint30_radial_510_201)"/>
<path d="M9.24887 7.35811H9.23572C9.21682 7.35811 9.19298 7.36223 9.16427 7.3696H9.16343C9.07388 7.39506 8.93839 7.4567 8.76836 7.5544C8.76669 7.55523 8.76507 7.55607 8.76262 7.5569C8.56383 7.67021 8.31744 7.83121 8.04308 8.03491C7.97575 8.08501 7.90592 8.1384 7.83531 8.19425H7.83448C7.67843 8.31663 7.5158 8.45133 7.34906 8.59752C7.1355 8.78482 6.97862 8.98194 6.86447 9.17411C6.86447 9.17411 6.86417 9.17468 6.86364 9.17578C6.73959 9.38359 6.66485 9.58479 6.62049 9.7614C6.59752 9.85257 6.58271 9.93717 6.57289 10.0127C6.54497 10.2296 6.56219 10.3692 6.56219 10.3692C6.56219 10.3692 6.53589 10.3059 6.49482 10.1959C6.49482 10.1959 6.49403 10.1934 6.4932 10.1926C6.48172 10.1606 6.4694 10.1244 6.45542 10.0858C6.47185 10.0045 6.49158 9.92402 6.51371 9.84438C6.51371 9.84026 6.51455 9.83859 6.51621 9.8353C6.54904 9.71375 6.58849 9.59632 6.63448 9.4813C6.76672 9.1454 6.94824 8.83326 7.16916 8.55566H7.17C7.24719 8.45791 7.33017 8.36428 7.41722 8.27556H7.41805C7.42708 8.2657 7.43695 8.25583 7.44681 8.24601C7.50427 8.1885 7.56341 8.13349 7.6242 8.08089H7.62504C7.64226 8.06529 7.6587 8.05051 7.67597 8.03653C7.75562 7.97004 7.83776 7.90595 7.9232 7.84682C7.78849 7.86817 7.65625 7.89201 7.52729 7.91743C7.17819 7.98564 6.85132 8.06774 6.54659 8.1647C6.42421 8.20165 6.30594 8.24273 6.19092 8.28542C6.1548 8.29857 6.11868 8.31251 6.08252 8.32733C6.0784 8.24189 6.07761 8.15813 6.0809 8.07432C6.11947 7.01888 6.3322 6.28212 6.86197 5.50841C7.11086 5.14537 7.51168 4.88995 7.86897 4.72075C7.87717 4.71663 7.88541 4.71335 7.89277 4.71006C7.89606 4.70844 7.89856 4.70677 7.9018 4.70594C8.29197 4.52526 8.61967 4.44885 8.61967 4.44885L8.49567 5.0805L8.44719 5.16098L8.07679 5.78031L8.16959 5.81069L8.63199 5.96428L8.66899 5.9766L8.65255 5.99795L8.54739 6.13348H8.5466L8.37 6.36343C8.37 6.36343 9.08374 7.0337 9.23405 7.27351C9.26609 7.31949 9.27429 7.35071 9.24887 7.35811Z" fill="url(#paint31_radial_510_201)"/>
<path d="M9.17822 6.45962C9.17822 6.45962 10.0735 6.67976 10.3881 6.54751C10.7026 6.41526 10.8217 6.33557 10.8217 6.33557L10.3905 7.21606L9.57247 7.26538L9.17901 6.45962H9.17822Z" fill="#FFF6F6"/>
<path d="M8.40208 5.08032L7.98315 5.91729L8.56961 5.97642L8.2764 6.36326L9.14537 7.35794L9.61847 7.3571L9.11828 6.33533L8.40208 5.08032Z" fill="url(#paint32_radial_510_201)"/>
<path d="M11.5372 5.08032L11.9561 5.91729L11.3697 5.97642L11.6629 6.36326L10.7931 7.35794L10.3208 7.3571L10.821 6.33533L11.5372 5.08032Z" fill="url(#paint33_radial_510_201)"/>
<path d="M9.99059 6.48544C10.7145 6.48544 11.3014 5.77278 11.3014 4.89365C11.3014 4.01456 10.7145 3.30188 9.99059 3.30188C9.26658 3.30188 8.67969 4.01456 8.67969 4.89365C8.67969 5.77278 9.26658 6.48544 9.99059 6.48544Z" fill="url(#paint34_radial_510_201)"/>
<path d="M6.65332 9.59934L6.61146 9.76771L6.56053 9.97469L6.50302 10.208C6.50302 10.208 6.50056 10.2039 6.49482 10.1957C6.49482 10.1957 6.49399 10.1932 6.4932 10.1924C6.48413 10.1751 6.46935 10.148 6.45129 10.1086C6.45292 10.1004 6.45375 10.093 6.45541 10.0856C6.47181 10.0043 6.49153 9.92376 6.51371 9.84411C6.51371 9.83999 6.51455 9.83837 6.51617 9.83508C6.54904 9.71349 6.58845 9.59606 6.63448 9.48108C6.64022 9.51965 6.64679 9.5591 6.65332 9.59934Z" fill="url(#paint35_radial_510_201)"/>
<path d="M8.44308 5.08016L8.4209 5.11549L8.29115 5.32165C8.29115 5.32165 8.28703 5.32248 8.27962 5.3241C8.26647 5.32822 8.24021 5.33563 8.20405 5.34795C7.86074 5.46783 6.61967 6.04692 6.54656 8.16437C6.42417 8.20132 6.30591 8.24239 6.19093 8.28508C6.15477 8.29823 6.11865 8.31222 6.08249 8.32699C6.071 8.33111 6.05868 8.33519 6.0472 8.34093C6.03979 8.25554 6.03322 8.16599 6.02831 8.07402C5.9445 6.56763 6.59995 5.75863 7.03938 5.25677C7.25049 5.01529 7.58231 4.83785 7.86894 4.72042C7.87718 4.7163 7.88538 4.71301 7.89278 4.70972C7.89607 4.7081 7.89853 4.70644 7.90181 4.70565C8.19502 4.58734 8.43405 4.53149 8.43405 4.53149L8.44308 5.08016Z" fill="url(#paint36_radial_510_201)"/>
<path d="M9.23981 7.35783L9.23568 7.3595C9.23568 7.3595 9.22911 7.36195 9.2242 7.36441C9.21351 7.36853 9.1979 7.3751 9.17739 7.3833C9.0977 7.41534 8.94822 7.47693 8.76833 7.55412C8.76671 7.55495 8.76508 7.55578 8.76258 7.55662C8.53837 7.65353 8.26652 7.77592 8.02254 7.89909C8.01105 7.90488 7.99957 7.91062 7.98808 7.91636L7.98313 7.91882C7.91825 7.95169 7.85662 7.98452 7.79833 8.0174H7.79749C7.76221 8.03708 7.7285 8.05681 7.6965 8.0757C7.5938 8.13566 7.50758 8.19396 7.44678 8.24573C7.50429 8.18822 7.56342 8.13321 7.62422 8.08061H7.62501C7.64228 8.065 7.65871 8.05023 7.67594 8.03629C7.75563 7.96975 7.83773 7.90567 7.92316 7.84654C7.78846 7.86788 7.65622 7.89173 7.5273 7.9172C7.59134 7.74633 7.70632 7.52703 7.91168 7.30361C7.91168 7.30361 7.91251 7.30199 7.9158 7.29953C7.91826 7.29624 7.92154 7.29296 7.924 7.28967C7.92562 7.28721 7.92812 7.28472 7.93057 7.28226C8.04721 7.15909 8.19095 7.03587 8.37001 6.92006C8.4365 6.87653 8.508 6.83463 8.58436 6.79356C8.59996 6.78536 8.61557 6.77712 8.63117 6.76892L9.16836 7.28884L9.23981 7.35783Z" fill="#244C0F"/>
<path d="M12.5679 8.38617C12.5679 8.38617 12.5145 7.35126 11.3778 6.76892L10.7692 7.35783C10.7692 7.35783 12.1819 8.05597 12.5679 8.38617Z" fill="#244C0F"/>
<path d="M8.83737 4.1356C8.83737 4.1356 8.83983 4.12985 8.84149 4.12657C8.84149 4.12657 8.84149 4.12494 8.84312 4.12411C9.06982 3.65018 9.49856 3.32903 9.99056 3.32903C10.4825 3.32903 10.9113 3.65018 11.1372 4.12411C11.138 4.12494 11.1388 4.12657 11.1388 4.12657C11.1405 4.12985 11.1421 4.13231 11.1429 4.1356C11.2489 4.36064 11.3088 4.61939 11.3088 4.89454C11.3088 5.16968 11.2489 5.4276 11.1429 5.65264C11.1421 5.65593 11.1405 5.65839 11.1388 5.66167C11.1388 5.66167 11.138 5.66334 11.1372 5.66413C10.9113 6.13806 10.4817 6.45923 9.99056 6.45923C9.4994 6.45923 9.06982 6.13806 8.84312 5.66413C8.84228 5.66334 8.84149 5.66167 8.84149 5.66167C8.83983 5.65839 8.83821 5.65593 8.83737 5.65264C8.73143 5.4276 8.67146 5.16968 8.67146 4.89454C8.67146 4.61939 8.73143 4.36064 8.83737 4.1356ZM13.6743 5.89496C13.0238 4.75409 11.9043 4.39597 11.5569 4.30975C11.3425 3.54997 10.7216 3.00049 9.99056 3.00049C9.25954 3.00049 8.63859 3.54997 8.4234 4.30975C8.07598 4.39597 6.95646 4.75409 6.30675 5.89496C5.91168 6.58736 5.76794 7.43007 5.87393 8.41239C5.93057 8.38692 5.98808 8.36312 6.04721 8.34094C6.05874 8.3352 6.07106 8.33108 6.08254 8.327C6.11866 8.31218 6.15482 8.29824 6.19094 8.28509C6.11046 7.41446 6.24354 6.67029 6.5893 6.06166C7.09611 5.16885 7.94702 4.80253 8.35441 4.67278C8.347 4.74506 8.34293 4.8198 8.34293 4.89454C8.34293 4.94381 8.34455 4.99229 8.34784 5.03993L8.2041 5.34791L7.92238 5.95164L8.39053 6.08138L8.22054 6.43131L8.577 6.7861L8.58441 6.79351L9.09854 7.30523L9.10103 7.30685L9.16345 7.36927H9.16429L9.17739 7.38325L9.27431 7.47934L9.39012 7.3627L9.38438 7.35695L9.28913 7.26166L8.41928 6.3976L8.54662 6.13394H8.54741L8.62381 5.97627L8.15317 5.84565L8.16961 5.81036L8.38974 5.34055C8.43734 5.56721 8.52032 5.77748 8.63201 5.96395C8.63859 5.97544 8.64516 5.98613 8.65257 5.99762C8.78644 6.21118 8.9573 6.39186 9.15521 6.52573L9.23407 6.57338L9.28829 6.60625C9.50102 6.72285 9.73921 6.78777 9.99056 6.78777C10.2419 6.78777 10.4751 6.72452 10.6862 6.61033C11.1363 6.36806 11.4764 5.89825 11.593 5.33068L11.823 5.82347L11.8337 5.84565L11.363 5.97627L11.5676 6.3976L10.6969 7.26332L10.6016 7.35779L10.5967 7.3627L10.7125 7.47934L10.8308 7.36107L10.8867 7.30602L11.2949 6.90029L11.2982 6.897L11.4099 6.7861L11.4148 6.78119L11.7663 6.43131L11.5963 6.08138L12.0645 5.95164L11.7836 5.3512L11.6333 5.02678C11.6366 4.98326 11.6382 4.9389 11.6382 4.89454C11.6382 4.8198 11.6341 4.74506 11.6267 4.67278C12.0341 4.80253 12.885 5.16885 13.3918 6.06166C13.7367 6.66867 13.8698 7.41034 13.791 8.27852C13.7868 8.32862 13.7811 8.37956 13.7745 8.43128C13.7745 8.43952 13.7737 8.44772 13.7721 8.45591C13.7663 8.50768 13.7589 8.56107 13.7507 8.61446C13.7351 8.72124 13.7162 8.83048 13.694 8.94133C13.639 9.22472 13.5635 9.51959 13.4673 9.82678C13.4673 9.82678 13.4665 9.83169 13.4649 9.83419C13.4583 9.85799 13.4509 9.881 13.4435 9.9048V9.90643C13.4361 9.92944 13.4288 9.95162 13.4205 9.97463C13.4164 9.98857 13.4123 10.0017 13.4074 10.0157C13.3918 10.0625 13.3762 10.1085 13.3598 10.1561C13.3293 10.2448 13.2973 10.3327 13.2636 10.4223L13.4049 10.4748L13.4246 10.4822L13.5051 10.5126L13.5708 10.5372C13.5733 10.5307 13.5758 10.5233 13.5782 10.5167C13.5807 10.5118 13.5824 10.5077 13.584 10.5027C13.6357 10.3623 13.6842 10.2251 13.7285 10.0896C13.8402 9.75121 13.929 9.42513 13.9947 9.11136C14.0217 8.98653 14.0439 8.86414 14.0628 8.74342C14.0719 8.69165 14.0793 8.64155 14.0858 8.59145C14.0867 8.58487 14.0875 8.5783 14.0883 8.57256C14.0957 8.51588 14.1031 8.46004 14.1088 8.40502C14.2131 7.42511 14.0686 6.58569 13.6752 5.89496H13.6743ZM6.63533 10.1947C6.61972 10.152 6.60491 10.1101 6.59014 10.0683V10.0666L6.57287 10.0124C6.56796 10.0001 6.56384 9.98695 6.56055 9.97463C6.54494 9.92944 6.53101 9.88429 6.51785 9.83993C6.51623 9.83826 6.51623 9.83664 6.51623 9.83498C6.51457 9.83826 6.51373 9.83993 6.51373 9.84322C6.49155 9.9237 6.47187 10.0042 6.45544 10.0855C6.45377 10.0929 6.45298 10.1003 6.45131 10.1085C6.42585 10.2375 6.40779 10.368 6.39714 10.5019C6.39959 10.5093 6.40205 10.5159 6.40533 10.5233C6.40696 10.5282 6.40862 10.5323 6.41024 10.5372L6.49484 10.5052L6.57699 10.4748L6.59671 10.4674L6.71743 10.4223C6.68872 10.3459 6.66159 10.2695 6.63533 10.1947Z" fill="#244C0F"/>
<path d="M7.98815 7.91643L7.91174 7.30371C7.91174 7.30371 8.17128 6.99324 8.57784 6.78625L9.10026 7.32344L7.98815 7.91643Z" fill="url(#paint37_linear_510_201)"/>
<path d="M11.9955 7.9169L12.0719 7.30419C12.0719 7.30419 11.8756 7.02409 11.4124 6.78015L10.8834 7.32387L11.9955 7.9169Z" fill="url(#paint38_linear_510_201)"/>
<path d="M13.5848 10.5194C13.584 10.5136 13.584 10.5079 13.5831 10.503C13.5741 10.3937 13.561 10.287 13.5421 10.1818C13.538 10.1572 13.5339 10.1325 13.5289 10.1087C13.5109 10.0159 13.4895 9.92471 13.464 9.8352C13.4632 9.83029 13.4624 9.82701 13.4608 9.82289C13.4287 9.70624 13.3901 9.5921 13.3458 9.4812C13.2119 9.14035 13.0279 8.82575 12.802 8.54486C12.7257 8.44957 12.6435 8.3576 12.5573 8.27051H12.5565C12.5565 8.27051 12.554 8.26643 12.5515 8.26476C12.4883 8.19989 12.4218 8.1383 12.3536 8.07834C12.3355 8.06273 12.3174 8.04713 12.2994 8.03231C12.2197 7.96582 12.1367 7.90256 12.0513 7.84343L12.0505 7.8426C12.0365 7.83274 12.0234 7.82287 12.0086 7.81301C11.6735 7.58551 11.2989 7.41386 10.8973 7.3087C10.8932 7.30791 10.8899 7.30708 10.8866 7.30625C10.8727 7.30296 10.8595 7.29967 10.8464 7.29638C10.8431 7.2956 10.839 7.29476 10.8357 7.29393C10.8209 7.28981 10.8061 7.28652 10.7914 7.28407C10.7601 7.27587 10.7289 7.2693 10.6969 7.26355C10.5959 7.24299 10.494 7.22739 10.3897 7.21591H10.3889C10.2583 7.20113 10.1253 7.19373 9.99055 7.19373C9.84186 7.19373 9.69484 7.20276 9.55111 7.22003H9.54945C9.46156 7.23151 9.37451 7.24549 9.28907 7.26189C9.27101 7.26601 9.25212 7.2693 9.23406 7.27342C9.21188 7.27833 9.19053 7.28323 9.16835 7.28902C9.14534 7.29393 9.12237 7.29884 9.09936 7.30463H9.09853C9.09445 7.30541 9.09033 7.30708 9.08538 7.30791C8.68456 7.41219 8.31004 7.58389 7.97493 7.81056C7.95766 7.82125 7.94043 7.83357 7.92316 7.84589C7.83777 7.90502 7.75563 7.96911 7.67594 8.0356C7.65871 8.04958 7.64228 8.06436 7.62505 8.07996H7.62421C7.56342 8.13252 7.50429 8.18757 7.44678 8.24504C7.43696 8.2549 7.42709 8.26476 7.41806 8.27463H7.41723C7.33018 8.36335 7.2472 8.45698 7.17001 8.55473H7.16917C6.94825 8.83233 6.76669 9.14443 6.63449 9.48037C6.58846 9.59539 6.54906 9.71282 6.51618 9.83358C6.51618 9.83358 6.51373 9.83932 6.51373 9.84261C6.49155 9.92309 6.47186 10.0036 6.45543 10.0849C6.45376 10.0923 6.45297 10.0997 6.45131 10.1079C6.42584 10.2369 6.40778 10.3674 6.39708 10.5013C6.39629 10.5104 6.39546 10.5186 6.39546 10.5268C6.38805 10.6163 6.38477 10.7075 6.38477 10.7987C6.38477 11.1255 6.42829 11.4426 6.51044 11.744C6.51044 11.7473 6.5121 11.7514 6.51373 11.7547C6.51701 11.7678 6.5203 11.7802 6.52442 11.7933C6.52525 11.7974 6.52688 11.8015 6.5285 11.8056C6.53179 11.8196 6.53591 11.8336 6.54086 11.8467C6.54989 11.8787 6.55975 11.9108 6.5704 11.942H6.57124C6.60328 12.0397 6.64023 12.1358 6.68047 12.2295C6.69033 12.2508 6.69936 12.273 6.70922 12.2935C6.70922 12.2935 6.71006 12.2935 6.71006 12.2952C6.816 12.5252 6.94413 12.742 7.09361 12.9424L7.09444 12.9432C7.14454 13.0114 7.1971 13.0779 7.25294 13.142C7.26609 13.1576 7.27924 13.1732 7.29401 13.1888C7.30716 13.2044 7.32115 13.22 7.33509 13.2348C7.35152 13.2529 7.36713 13.2701 7.38357 13.2873V13.2882C7.39176 13.2964 7.39917 13.3046 7.40737 13.3128H7.4082C7.69154 13.6036 8.02337 13.8467 8.38973 14.0291C8.4234 14.0455 8.45706 14.0619 8.49073 14.0775C8.5975 14.126 8.70757 14.1703 8.82009 14.2089C8.83324 14.2139 8.84639 14.2179 8.86033 14.2221C8.86529 14.2245 8.86936 14.2262 8.87515 14.227H8.87594C8.95646 14.2541 9.03856 14.2779 9.12237 14.2985C9.23897 14.3272 9.35807 14.3502 9.47883 14.3675C9.64557 14.3913 9.81556 14.4036 9.98888 14.4036C10.1622 14.4036 10.3478 14.3904 10.5219 14.3642H10.5228C10.6443 14.3461 10.7634 14.3223 10.8801 14.2927C10.9638 14.2705 11.0468 14.2467 11.1281 14.2188H11.1289C11.1289 14.2188 11.1372 14.2163 11.1412 14.2147C11.1642 14.2073 11.1873 14.1991 11.2094 14.19L11.2119 14.1892C11.3104 14.1547 11.4057 14.1153 11.4994 14.0718C11.533 14.0562 11.5667 14.0397 11.5996 14.0233C11.9478 13.8483 12.264 13.6192 12.5367 13.3465C12.5605 13.3227 12.5844 13.298 12.6082 13.2734C12.609 13.2726 12.6098 13.271 12.6098 13.271C12.6271 13.2537 12.6427 13.2356 12.6583 13.2176C12.6714 13.2044 12.6838 13.1904 12.6953 13.1765C12.7109 13.1601 12.7257 13.1428 12.7396 13.1256C12.7938 13.0623 12.8456 12.9966 12.8949 12.9293V12.9284C13.0115 12.7699 13.115 12.6024 13.2045 12.4241C13.2053 12.4233 13.2053 12.4217 13.2061 12.4208L13.207 12.42C13.239 12.3568 13.2694 12.2927 13.2973 12.2278C13.3376 12.1367 13.3729 12.043 13.4049 11.9477C13.4164 11.9141 13.4279 11.8796 13.4378 11.8451C13.4419 11.8344 13.4451 11.8229 13.4476 11.8122C13.4493 11.8073 13.4509 11.8023 13.4517 11.7974C13.4558 11.7851 13.4591 11.7736 13.4624 11.7613C13.4673 11.7432 13.4723 11.7251 13.4772 11.7079C13.5528 11.4171 13.593 11.1124 13.593 10.7987C13.593 10.7042 13.5897 10.6106 13.5823 10.5186L13.5848 10.5194ZM9.99055 14.0759C8.18354 14.0759 6.7133 12.6065 6.7133 10.7995C6.7133 10.7658 6.71413 10.7321 6.71497 10.6985C6.7158 10.673 6.71659 10.6475 6.71825 10.6221C6.71825 10.6179 6.71825 10.613 6.71909 10.6089C6.71988 10.5884 6.72154 10.5678 6.72316 10.5473C6.72566 10.5079 6.72974 10.4685 6.73469 10.4299C6.73715 10.4069 6.7396 10.3847 6.74289 10.3617C6.74618 10.3329 6.7503 10.3042 6.75521 10.2763C6.76016 10.2467 6.76507 10.2163 6.77081 10.1868C6.77655 10.1572 6.7823 10.1284 6.78887 10.0989C6.79466 10.0709 6.80119 10.0422 6.8086 10.0143C6.81188 10.0011 6.81517 9.98718 6.81846 9.97403C6.83161 9.92471 6.84476 9.87544 6.86036 9.8278C6.86856 9.80154 6.87676 9.77524 6.88579 9.74977C6.90139 9.70212 6.91866 9.65531 6.93672 9.60933C6.95807 9.55594 6.98025 9.50338 7.00326 9.45245C7.02216 9.41137 7.04188 9.3703 7.0624 9.32923C7.078 9.29885 7.09361 9.26847 7.11004 9.23889C7.12398 9.2118 7.1388 9.1855 7.1544 9.16003C7.16343 9.14364 7.1733 9.1272 7.18316 9.11159C7.19793 9.08529 7.21437 9.05983 7.23076 9.0344C7.25868 8.99004 7.28827 8.94651 7.31865 8.90378C7.33921 8.87502 7.36055 8.84631 7.3819 8.81839C7.39917 8.79537 7.41723 8.77236 7.43529 8.75018C7.45585 8.72393 7.4772 8.69846 7.49854 8.67382C7.52072 8.64752 7.5429 8.62206 7.56587 8.59742C7.58805 8.57279 7.61023 8.54898 7.63325 8.52597C7.65788 8.49884 7.68418 8.47341 7.71044 8.44795C7.72604 8.43313 7.74165 8.41919 7.75646 8.40442C7.79587 8.36742 7.83611 8.3313 7.87718 8.29681C7.91334 8.26643 7.94946 8.23684 7.98642 8.20809C7.99873 8.19822 8.01105 8.1892 8.02337 8.18017C8.06773 8.1465 8.11375 8.11362 8.15973 8.08242C8.19585 8.05778 8.23285 8.03398 8.2698 8.01097C8.30513 7.98879 8.34125 7.96744 8.3782 7.94692C8.41353 7.9272 8.44886 7.90747 8.48498 7.88941C8.50059 7.88038 8.51703 7.87219 8.53346 7.86478C8.55564 7.85329 8.57778 7.8426 8.59996 7.83274C8.62464 7.82042 8.65006 7.80894 8.67553 7.79824C8.70345 7.78592 8.73058 7.77361 8.75851 7.76291C8.77985 7.75388 8.80203 7.74485 8.82421 7.73665C8.85214 7.72596 8.88006 7.7161 8.90798 7.70623C8.94905 7.69146 8.99096 7.67752 9.03282 7.6652C9.05338 7.6578 9.07389 7.65205 9.09445 7.6471C9.14617 7.63233 9.19873 7.61834 9.25133 7.60603C9.29894 7.59538 9.34742 7.58551 9.39669 7.57648C9.41229 7.5732 9.4279 7.57074 9.4435 7.56824C9.47392 7.56333 9.5043 7.55842 9.53467 7.5543C9.57084 7.54856 9.60779 7.54444 9.64474 7.54115C9.65294 7.53953 9.66118 7.5387 9.66938 7.5387C9.70883 7.53375 9.74823 7.5305 9.78847 7.52884C9.8164 7.52721 9.84353 7.52555 9.87145 7.52472C9.91086 7.52309 9.9511 7.52226 9.99055 7.52226C11.7975 7.52226 13.2669 8.9925 13.2669 10.7995C13.2669 12.6065 11.7975 14.0759 9.99055 14.0759Z" fill="#E38336"/>
<path d="M13.2677 10.8C13.2677 12.607 11.7983 14.0764 9.99131 14.0764C8.18435 14.0764 6.71411 12.607 6.71411 10.8C6.71411 8.99306 8.18435 7.52283 9.99131 7.52283C11.7983 7.52283 13.2677 8.99306 13.2677 10.8Z" fill="white"/>
<path d="M11.0994 11.2128V12.081H10.8341V12.6067H10.025V12.081H8.32812V11.244L9.62995 8.71753H10.6427L9.36633 11.2128H10.025V10.6962H10.8341V11.2128H11.0994Z" fill="#121212"/>
<path d="M8.94739 4.6217C8.94739 4.6217 8.98763 3.84141 9.67345 3.56136C10.3593 3.28126 10.8431 4.02131 10.8431 4.02131C10.089 3.8792 9.45003 4.14286 8.94739 4.88453V4.62253V4.6217Z" fill="url(#paint39_radial_510_201)"/>
<path d="M4.83734 12.5336C4.88582 12.481 3.21681 12.9533 3.62503 14.4046L4.39628 14.058C4.39628 14.058 3.98396 13.46 4.83734 12.5336Z" fill="url(#paint40_radial_510_201)"/>
<path d="M15.7556 12.8349C15.7556 12.8349 14.7182 12.2147 14.1408 12.9277C13.6907 13.4829 14.1465 14.2131 14.4653 14.4825C14.4653 14.4825 14.5605 13.3261 15.7556 12.8349Z" fill="url(#paint41_linear_510_201)"/>
</g>
<defs>
<radialGradient id="paint0_radial_510_201" cx="0" cy="0" r="1" gradientUnits="userSpaceOnUse" gradientTransform="translate(3.98808 12.1577) scale(8.54701)">
<stop stop-color="#E3F352"/>
<stop offset="0.21" stop-color="#DDE248"/>
<stop offset="0.59" stop-color="#D5CB3B"/>
<stop offset="0.83" stop-color="#D2C337"/>
</radialGradient>
<radialGradient id="paint1_radial_510_201" cx="0" cy="0" r="1" gradientUnits="userSpaceOnUse" gradientTransform="translate(4.97374 9.54741) scale(5.80204 5.80204)">
<stop stop-color="#E3F352"/>
<stop offset="0.11" stop-color="#DDE248"/>
<stop offset="0.32" stop-color="#D5CB3B"/>
<stop offset="0.45" stop-color="#D2C337"/>
</radialGradient>
<radialGradient id="paint2_radial_510_201" cx="0" cy="0" r="1" gradientUnits="userSpaceOnUse" gradientTransform="translate(3.89039 11.7481) scale(4.05421)">
<stop stop-color="#E3F352"/>
<stop offset="0.21" stop-color="#DDE248"/>
<stop offset="0.59" stop-color="#D5CB3B"/>
<stop offset="0.83" stop-color="#D2C337"/>
</radialGradient>
<radialGradient id="paint3_radial_510_201" cx="0" cy="0" r="1" gradientUnits="userSpaceOnUse" gradientTransform="translate(3.64142 11.6757) scale(3.62218)">
<stop stop-color="#E3F352"/>
<stop offset="0.11" stop-color="#DDE248"/>
<stop offset="0.32" stop-color="#D5CB3B"/>
<stop offset="0.45" stop-color="#D2C337"/>
</radialGradient>
<radialGradient id="paint4_radial_510_201" cx="0" cy="0" r="1" gradientUnits="userSpaceOnUse" gradientTransform="translate(7.175 8.45005) scale(0.900205)">
<stop stop-color="#E3F352"/>
<stop offset="0.11" stop-color="#DDE248"/>
<stop offset="0.32" stop-color="#D5CB3B"/>
<stop offset="0.45" stop-color="#D2C337"/>
</radialGradient>
<radialGradient id="paint5_radial_510_201" cx="0" cy="0" r="1" gradientUnits="userSpaceOnUse" gradientTransform="translate(6.90393 14.6013) scale(3.49323)">
<stop stop-color="#B0BD3F"/>
<stop offset="0.16" stop-color="#B4B538"/>
<stop offset="0.45" stop-color="#BAAD31"/>
</radialGradient>
<linearGradient id="paint6_linear_510_201" x1="7.76811" y1="12.8414" x2="5.5936" y2="15.6195" gradientUnits="userSpaceOnUse">
<stop stop-color="#E3F352"/>
<stop offset="0.11" stop-color="#DEED4F"/>
<stop offset="0.24" stop-color="#D3DD48"/>
<stop offset="0.39" stop-color="#BFC33D"/>
<stop offset="0.55" stop-color="#A49F2D"/>
<stop offset="0.67" stop-color="#8E8120"/>
</linearGradient>
<linearGradient id="paint7_linear_510_201" x1="7.24892" y1="11.9062" x2="4.77581" y2="11.8881" gradientUnits="userSpaceOnUse">
<stop stop-color="#E3F352"/>
<stop offset="0.14" stop-color="#DEED4F"/>
<stop offset="0.33" stop-color="#D3DD48"/>
<stop offset="0.53" stop-color="#BFC33D"/>
<stop offset="0.75" stop-color="#A49F2D"/>
<stop offset="0.9" stop-color="#8E8120"/>
</linearGradient>
<radialGradient id="paint8_radial_510_201" cx="0" cy="0" r="1" gradientUnits="userSpaceOnUse" gradientTransform="translate(4.12332 13.1509) scale(2.80411)">
<stop stop-color="#E5E52C"/>
<stop offset="0.21" stop-color="#C5C11D"/>
<stop offset="0.66" stop-color="#877A00"/>
</radialGradient>
<radialGradient id="paint9_radial_510_201" cx="0" cy="0" r="1" gradientUnits="userSpaceOnUse" gradientTransform="translate(5.74677 15.2418) rotate(60.75) scale(8.50019 8.5002)">
<stop stop-color="#E3F352"/>
<stop offset="0.11" stop-color="#DDE248"/>
<stop offset="0.32" stop-color="#D5CB3B"/>
<stop offset="0.45" stop-color="#D2C337"/>
</radialGradient>
<radialGradient id="paint10_radial_510_201" cx="0" cy="0" r="1" gradientUnits="userSpaceOnUse" gradientTransform="translate(6.98327 11.761) rotate(-135.44) scale(3.0768 2.89219)">
<stop stop-color="#E3F352"/>
<stop offset="0.14" stop-color="#DEED4F"/>
<stop offset="0.33" stop-color="#D3DD48"/>
<stop offset="0.53" stop-color="#BFC33D"/>
<stop offset="0.75" stop-color="#A49F2D"/>
<stop offset="0.9" stop-color="#8E8120"/>
</radialGradient>
<radialGradient id="paint11_radial_510_201" cx="0" cy="0" r="1" gradientUnits="userSpaceOnUse" gradientTransform="translate(6.9499 11.7937) scale(1.9113 1.91129)">
<stop stop-color="#E3F352"/>
<stop offset="0.14" stop-color="#DEED4F"/>
<stop offset="0.33" stop-color="#D3DD48"/>
<stop offset="0.53" stop-color="#BFC33D"/>
<stop offset="0.75" stop-color="#A49F2D"/>
<stop offset="0.9" stop-color="#8E8120"/>
</radialGradient>
<radialGradient id="paint12_radial_510_201" cx="0" cy="0" r="1" gradientUnits="userSpaceOnUse" gradientTransform="translate(14.7201 11.4211) rotate(-60.75) scale(6.10594)">
<stop stop-color="#1DB1EF"/>
<stop offset="0.29" stop-color="#189CEC"/>
<stop offset="0.49" stop-color="#1794EB"/>
</radialGradient>
<radialGradient id="paint13_radial_510_201" cx="0" cy="0" r="1" gradientUnits="userSpaceOnUse" gradientTransform="translate(15.9892 12.1419) rotate(-60.75) scale(8.5002)">
<stop stop-color="#1DD1EF"/>
<stop offset="0.18" stop-color="#1AB3ED"/>
<stop offset="0.37" stop-color="#179CEB"/>
<stop offset="0.49" stop-color="#1794EB"/>
</radialGradient>
<radialGradient id="paint14_radial_510_201" cx="0" cy="0" r="1" gradientUnits="userSpaceOnUse" gradientTransform="translate(13.0019 14.4903) rotate(119.25) scale(3.4768 3.4768)">
<stop stop-color="#1DB1EF"/>
<stop offset="0.29" stop-color="#189CEC"/>
<stop offset="0.49" stop-color="#1794EB"/>
</radialGradient>
<linearGradient id="paint15_linear_510_201" x1="12.233" y1="12.8422" x2="14.4073" y2="15.6195" gradientUnits="userSpaceOnUse">
<stop stop-color="#67ACE1"/>
<stop offset="0.17" stop-color="#5494C9"/>
<stop offset="0.63" stop-color="#23598E"/>
<stop offset="0.85" stop-color="#114277"/>
</linearGradient>
<linearGradient id="paint16_linear_510_201" x1="13.3724" y1="12.1593" x2="15.7723" y2="11.8298" gradientUnits="userSpaceOnUse">
<stop stop-color="#67ACE1"/>
<stop offset="0.17" stop-color="#5494C9"/>
<stop offset="0.63" stop-color="#23598E"/>
<stop offset="0.85" stop-color="#114277"/>
</linearGradient>
<radialGradient id="paint17_radial_510_201" cx="0" cy="0" r="1" gradientUnits="userSpaceOnUse" gradientTransform="translate(15.1629 13.2038) scale(2.39754)">
<stop stop-color="#67ACE1"/>
<stop offset="0.17" stop-color="#5494C9"/>
<stop offset="0.63" stop-color="#23598E"/>
<stop offset="0.85" stop-color="#114277"/>
</radialGradient>
<radialGradient id="paint18_radial_510_201" cx="0" cy="0" r="1" gradientUnits="userSpaceOnUse" gradientTransform="translate(14.2543 15.2413) rotate(119.25) scale(8.50019 8.5002)">
<stop stop-color="#1DD1EF"/>
<stop offset="0.18" stop-color="#1AB3ED"/>
<stop offset="0.37" stop-color="#179CEB"/>
<stop offset="0.49" stop-color="#1794EB"/>
</radialGradient>
<radialGradient id="paint19_radial_510_201" cx="0" cy="0" r="1" gradientUnits="userSpaceOnUse" gradientTransform="translate(11.7761 6.40122) scale(6.10594)">
<stop stop-color="#9FCB7E"/>
<stop offset="0.1" stop-color="#8AB66F"/>
<stop offset="0.32" stop-color="#659154"/>
<stop offset="0.49" stop-color="#4D7943"/>
<stop offset="0.6" stop-color="#45713D"/>
</radialGradient>
<radialGradient id="paint20_radial_510_201" cx="0" cy="0" r="1" gradientUnits="userSpaceOnUse" gradientTransform="translate(11.7663 4.94055) scale(8.5002 8.5002)">
<stop stop-color="#BFE0A4"/>
<stop offset="0.21" stop-color="#8BB078"/>
<stop offset="0.38" stop-color="#658D57"/>
<stop offset="0.52" stop-color="#4D7844"/>
<stop offset="0.6" stop-color="#45713D"/>
</radialGradient>
<radialGradient id="paint21_radial_510_201" cx="0" cy="0" r="1" gradientUnits="userSpaceOnUse" gradientTransform="translate(7.08623 6.40122) scale(6.10677)">
<stop stop-color="#9FCB7E"/>
<stop offset="0.1" stop-color="#8AB66F"/>
<stop offset="0.32" stop-color="#659154"/>
<stop offset="0.49" stop-color="#4D7943"/>
<stop offset="0.6" stop-color="#45713D"/>
</radialGradient>
<radialGradient id="paint22_radial_510_201" cx="0" cy="0" r="1" gradientUnits="userSpaceOnUse" gradientTransform="translate(9.43366 7.31195) scale(2.78029 2.78029)">
<stop stop-color="#9FCB7E"/>
<stop offset="0.11" stop-color="#8AB66F"/>
<stop offset="0.35" stop-color="#659154"/>
<stop offset="0.54" stop-color="#4D7943"/>
<stop offset="0.65" stop-color="#45713D"/>
</radialGradient>
<radialGradient id="paint23_radial_510_201" cx="0" cy="0" r="1" gradientUnits="userSpaceOnUse" gradientTransform="translate(10.5056 7.31195) rotate(180) scale(0.0410678)">
<stop stop-color="#9FCB7E"/>
<stop offset="0.11" stop-color="#8AB66F"/>
<stop offset="0.35" stop-color="#659154"/>
<stop offset="0.54" stop-color="#4D7943"/>
<stop offset="0.65" stop-color="#45713D"/>
</radialGradient>
<radialGradient id="paint24_radial_510_201" cx="0" cy="0" r="1" gradientUnits="userSpaceOnUse" gradientTransform="translate(9.75323 4.34993) scale(2.35401)">
<stop stop-color="#9FCB7E"/>
<stop offset="0.11" stop-color="#8AB66F"/>
<stop offset="0.35" stop-color="#659154"/>
<stop offset="0.54" stop-color="#4D7943"/>
<stop offset="0.65" stop-color="#45713D"/>
</radialGradient>
<radialGradient id="paint25_radial_510_201" cx="0" cy="0" r="1" gradientUnits="userSpaceOnUse" gradientTransform="translate(6.47102 9.53364) scale(1.04148)">
<stop stop-color="#BFE0A4"/>
<stop offset="0.21" stop-color="#8BB078"/>
<stop offset="0.38" stop-color="#658D57"/>
<stop offset="0.52" stop-color="#4D7844"/>
<stop offset="0.6" stop-color="#45713D"/>
</radialGradient>
<radialGradient id="paint26_radial_510_201" cx="0" cy="0" r="1" gradientUnits="userSpaceOnUse" gradientTransform="translate(6.2509 4.80585) scale(6.19712)">
<stop stop-color="#BFE0A4"/>
<stop offset="0.21" stop-color="#8BB078"/>
<stop offset="0.38" stop-color="#658D57"/>
<stop offset="0.52" stop-color="#4D7844"/>
<stop offset="0.6" stop-color="#45713D"/>
</radialGradient>
<linearGradient id="paint27_linear_510_201" x1="8.83085" y1="8.15629" x2="7.67767" y2="5.99939" gradientUnits="userSpaceOnUse">
<stop stop-color="#9FCB7E"/>
<stop offset="0.1" stop-color="#8AB66F"/>
<stop offset="0.32" stop-color="#659154"/>
<stop offset="0.49" stop-color="#4D7943"/>
<stop offset="0.6" stop-color="#45713D"/>
</linearGradient>
<linearGradient id="paint28_linear_510_201" x1="11.2694" y1="8.33253" x2="11.8649" y2="5.84053" gradientUnits="userSpaceOnUse">
<stop stop-color="#9FCB7E"/>
<stop offset="0.1" stop-color="#8AB66F"/>
<stop offset="0.32" stop-color="#659154"/>
<stop offset="0.49" stop-color="#4D7943"/>
<stop offset="0.6" stop-color="#45713D"/>
</linearGradient>
<radialGradient id="paint29_radial_510_201" cx="0" cy="0" r="1" gradientUnits="userSpaceOnUse" gradientTransform="translate(3.41227 2.58028) scale(0.036961)">
<stop stop-color="#6FB835"/>
<stop offset="0.18" stop-color="#5FAA24"/>
<stop offset="0.51" stop-color="#4A960D"/>
<stop offset="0.71" stop-color="#428F05"/>
</radialGradient>
<radialGradient id="paint30_radial_510_201" cx="0" cy="0" r="1" gradientUnits="userSpaceOnUse" gradientTransform="translate(11.7663 4.94055) scale(8.5002 8.5002)">
<stop stop-color="white"/>
<stop offset="0.6" stop-color="#45713D" stop-opacity="0"/>
</radialGradient>
<radialGradient id="paint31_radial_510_201" cx="0" cy="0" r="1" gradientUnits="userSpaceOnUse" gradientTransform="translate(7.85666 5.25873) scale(9.36508)">
<stop stop-color="#84FF26"/>
<stop offset="0.06" stop-color="#7BEB29"/>
<stop offset="0.24" stop-color="#64B731"/>
<stop offset="0.4" stop-color="#539137"/>
<stop offset="0.52" stop-color="#48793B"/>
<stop offset="0.6" stop-color="#45713D"/>
</radialGradient>
<radialGradient id="paint32_radial_510_201" cx="0" cy="0" r="1" gradientUnits="userSpaceOnUse" gradientTransform="translate(9.43366 7.31195) scale(2.78029 2.78029)">
<stop stop-color="#9FCB7E"/>
<stop offset="0.11" stop-color="#8AB66F"/>
<stop offset="0.35" stop-color="#659154"/>
<stop offset="0.54" stop-color="#4D7943"/>
<stop offset="0.65" stop-color="#45713D"/>
</radialGradient>
<radialGradient id="paint33_radial_510_201" cx="0" cy="0" r="1" gradientUnits="userSpaceOnUse" gradientTransform="translate(10.5056 7.31195) rotate(180) scale(0.0410678)">
<stop stop-color="#9FCB7E"/>
<stop offset="0.11" stop-color="#8AB66F"/>
<stop offset="0.35" stop-color="#659154"/>
<stop offset="0.54" stop-color="#4D7943"/>
<stop offset="0.65" stop-color="#45713D"/>
</radialGradient>
<radialGradient id="paint34_radial_510_201" cx="0" cy="0" r="1" gradientUnits="userSpaceOnUse" gradientTransform="translate(9.75323 4.34993) scale(2.35401)">
<stop stop-color="#9FCB7E"/>
<stop offset="0.11" stop-color="#8AB66F"/>
<stop offset="0.35" stop-color="#659154"/>
<stop offset="0.54" stop-color="#4D7943"/>
<stop offset="0.65" stop-color="#45713D"/>
</radialGradient>
<radialGradient id="paint35_radial_510_201" cx="0" cy="0" r="1" gradientUnits="userSpaceOnUse" gradientTransform="translate(6.47102 9.53364) scale(1.04148)">
<stop stop-color="#BFE0A4"/>
<stop offset="0.21" stop-color="#8BB078"/>
<stop offset="0.38" stop-color="#658D57"/>
<stop offset="0.52" stop-color="#4D7844"/>
<stop offset="0.6" stop-color="#45713D"/>
</radialGradient>
<radialGradient id="paint36_radial_510_201" cx="0" cy="0" r="1" gradientUnits="userSpaceOnUse" gradientTransform="translate(7.91168 5.31836) scale(6.81316)">
<stop stop-color="white"/>
<stop offset="0.6" stop-color="#45713D" stop-opacity="0"/>
</radialGradient>
<linearGradient id="paint37_linear_510_201" x1="8.83085" y1="8.15629" x2="7.67767" y2="5.99939" gradientUnits="userSpaceOnUse">
<stop stop-color="#9FCB7E"/>
<stop offset="0.1" stop-color="#8AB66F"/>
<stop offset="0.32" stop-color="#659154"/>
<stop offset="0.49" stop-color="#4D7943"/>
<stop offset="0.6" stop-color="#45713D"/>
</linearGradient>
<linearGradient id="paint38_linear_510_201" x1="11.2694" y1="8.33253" x2="11.8649" y2="5.84053" gradientUnits="userSpaceOnUse">
<stop stop-color="#9FCB7E"/>
<stop offset="0.1" stop-color="#8AB66F"/>
<stop offset="0.32" stop-color="#659154"/>
<stop offset="0.49" stop-color="#4D7943"/>
<stop offset="0.6" stop-color="#45713D"/>
</linearGradient>
<radialGradient id="paint39_radial_510_201" cx="0" cy="0" r="1" gradientUnits="userSpaceOnUse" gradientTransform="translate(9.97573 3.67717) scale(4.09035)">
<stop offset="0.17" stop-color="#E2E2E2" stop-opacity="0.55"/>
<stop offset="0.31" stop-color="#A2B49F" stop-opacity="0.37"/>
<stop offset="0.44" stop-color="#6F8F69" stop-opacity="0.22"/>
<stop offset="0.54" stop-color="#507949" stop-opacity="0.13"/>
<stop offset="0.6" stop-color="#45713D" stop-opacity="0.1"/>
</radialGradient>
<radialGradient id="paint40_radial_510_201" cx="0" cy="0" r="1" gradientUnits="userSpaceOnUse" gradientTransform="translate(5.01807 12.5705) scale(6.09033)">
<stop offset="0.17" stop-color="#E2E2E2" stop-opacity="0.55"/>
<stop offset="0.31" stop-color="#A2B49F" stop-opacity="0.37"/>
<stop offset="0.44" stop-color="#6F8F69" stop-opacity="0.22"/>
<stop offset="0.54" stop-color="#507949" stop-opacity="0.13"/>
<stop offset="0.6" stop-color="#45713D" stop-opacity="0.1"/>
</radialGradient>
<linearGradient id="paint41_linear_510_201" x1="14.5466" y1="12.5211" x2="15.4254" y2="14.6139" gradientUnits="userSpaceOnUse">
<stop offset="0.03" stop-color="#E2E2E2"/>
<stop offset="0.08" stop-color="#D4D7DB" stop-opacity="0.91"/>
<stop offset="0.26" stop-color="#ADB8C9" stop-opacity="0.64"/>
<stop offset="0.42" stop-color="#8C9EB9" stop-opacity="0.41"/>
<stop offset="0.58" stop-color="#728AAD" stop-opacity="0.23"/>
<stop offset="0.72" stop-color="#607BA5" stop-opacity="0.1"/>
<stop offset="0.84" stop-color="#54739F" stop-opacity="0.03"/>
<stop offset="0.93" stop-color="#51709E" stop-opacity="0"/>
</linearGradient>
</defs>
</svg>
