<svg width="20" height="20" viewBox="0 0 20 20" fill="none" xmlns="http://www.w3.org/2000/svg">
<g id="Frame" clip-path="url(#clip0_164_1769)">
<rect id="Rectangle 313" width="20" height="20" rx="10" fill="#EFF1EC"/>
<path id="Vector" d="M10.0387 16.8183C6.43804 16.8183 3.521 13.9413 3.521 10.3936C3.521 6.84602 6.43804 3.96899 10.0387 3.96899C13.6395 3.96899 16.5565 6.84602 16.5565 10.3936C16.5565 13.9413 13.6378 16.8183 10.0387 16.8183Z" fill="#FF0000"/>
<path id="Vector_2" d="M5.2007 13.1997C5.2007 9.72867 8.05527 6.91321 11.5767 6.91321C13.415 6.91321 15.071 7.68194 16.2341 8.9083C15.5589 6.15275 13.0402 4.10938 10.0388 4.10938C6.5157 4.10771 3.66113 6.92152 3.66113 10.3926C3.66113 12.0532 4.31443 13.5625 5.38131 14.6857C5.26314 14.2098 5.20235 13.7106 5.20235 13.1997H5.2007Z" fill="url(#paint0_linear_164_1769)"/>
<path id="Vector_3" d="M10.0001 3.43506C6.10223 3.43506 2.94043 6.55005 2.94043 10.3922C2.94043 14.2343 6.10223 17.3509 10.0001 17.3509C13.8979 17.3509 17.0597 14.2376 17.0597 10.3922C17.0597 6.54671 13.8996 3.43506 10.0001 3.43506ZM10.0001 4.1955C12.8614 4.1955 15.2028 6.10241 16.0384 8.65999C16.3625 9.65003 16.3237 11.5104 15.0492 12.9364C14.3672 13.6969 13.4758 14.1678 12.7804 14.4406C10.8829 15.1878 8.89097 14.5705 8.29676 13.1261C7.70254 11.6834 8.75423 9.89796 10.6466 9.14085C11.6409 8.74151 12.6706 8.70658 13.5079 8.97113L13.854 7.27056L13.6464 7.22895C13.1771 7.13411 12.2638 6.97103 11.1311 6.97103C6.55467 6.97103 4.32805 10.091 4.32805 12.9664C4.32805 13.0013 4.32805 13.0363 4.32973 13.0712C3.93472 12.2608 3.71358 11.3523 3.71358 10.3922C3.71358 6.96936 6.52932 4.1955 10.0001 4.1955Z" fill="url(#paint1_linear_164_1769)"/>
</g>
<defs>
<linearGradient id="paint0_linear_164_1769" x1="9.75518" y1="9.82681" x2="4.92764" y2="-0.143835" gradientUnits="userSpaceOnUse">
<stop stop-color="white" stop-opacity="0"/>
<stop offset="1" stop-color="white"/>
</linearGradient>
<linearGradient id="paint1_linear_164_1769" x1="10.0001" y1="19.8419" x2="10.0001" y2="-2.19253" gradientUnits="userSpaceOnUse">
<stop stop-color="#CCCCCC"/>
<stop offset="1" stop-color="white"/>
</linearGradient>
<clipPath id="clip0_164_1769">
<rect width="20" height="20" fill="white"/>
</clipPath>
</defs>
</svg>
