<svg width="20" height="20" viewBox="0 0 20 20" fill="none" xmlns="http://www.w3.org/2000/svg">
<g clip-path="url(#clip0_510_41)">
<rect width="20" height="20" rx="10" fill="#EFF1EC"/>
<mask id="mask0_510_41" style="mask-type:luminance" maskUnits="userSpaceOnUse" x="3" y="3" width="15" height="14">
<path d="M17.2289 3H3V16.4619H17.2289V3Z" fill="white"/>
</mask>
<g mask="url(#mask0_510_41)">
<path d="M7.12298 8.56506C6.89842 8.84321 6.71394 9.15589 6.57955 9.49245C6.53281 9.60765 6.49272 9.72529 6.45933 9.84628C6.45933 9.84628 6.45685 9.85202 6.45685 9.85532C6.42511 9.88164 6.38837 9.91374 6.34833 9.95325C6.34246 9.95981 6.33581 9.96641 6.32829 9.97301C6.28737 10.015 6.24229 10.0643 6.1972 10.1203C6.07116 10.2758 5.93842 10.4856 5.84659 10.7539C5.84576 10.7572 5.84411 10.7605 5.84242 10.7646C5.76563 10.99 5.71807 11.2567 5.72555 11.566L5.71889 11.5644L5.23389 11.4278L5.0085 11.7471L4.6612 11.4015L4.26803 11.9404C4.20376 11.5702 4.11694 10.2231 5.92342 9.13284C5.97181 9.10322 6.02189 9.07442 6.07368 9.04481C6.08285 9.03988 6.09202 9.03409 6.10207 9.02916C6.14294 9.00615 6.18468 8.98391 6.22811 8.96171C6.31576 8.91478 6.40759 8.86952 6.50276 8.82426C6.69307 8.73461 6.89929 8.64821 7.12298 8.56506Z" fill="url(#paint0_radial_510_41)"/>
<path d="M6.45678 9.85571C6.43425 9.93556 6.41421 10.0162 6.39751 10.0976C6.39586 10.1051 6.39499 10.1125 6.39334 10.1207C6.36747 10.2499 6.34908 10.3807 6.33825 10.5148C6.33743 10.5239 6.33656 10.5321 6.33656 10.5404L5.85573 10.7329C5.85573 10.7329 5.85238 10.7395 5.84656 10.7534C5.93838 10.4852 6.07112 10.2754 6.19717 10.1198C6.24225 10.0639 6.28734 10.0145 6.32821 9.97258C6.33573 9.96598 6.34243 9.95938 6.34825 9.95364C6.38834 9.91331 6.42508 9.88121 6.45678 9.85571Z" fill="#777136"/>
<path d="M7.87675 8.01111C7.86423 8.01689 7.80828 8.04072 7.72732 8.08847C7.65971 8.12879 7.57288 8.18639 7.47941 8.26289C7.39006 8.33614 7.29323 8.42665 7.19806 8.53774C7.05615 8.70479 6.91758 8.91707 6.81323 9.18449C6.81323 9.18449 6.81297 9.18505 6.81241 9.18617C6.76815 9.30137 6.72893 9.42809 6.69971 9.56549C6.65128 9.79015 6.61206 10.0057 6.58032 10.2073C6.56532 10.3011 6.5528 10.3925 6.5411 10.4805C6.53358 10.5431 6.52606 10.6039 6.51941 10.6632V10.6656C6.45845 11.2318 6.47015 11.6399 6.52441 11.7897C6.52858 11.8037 6.53358 11.8152 6.53941 11.8242C6.54358 11.8317 6.54528 11.8382 6.54358 11.8432C6.5411 11.8572 6.51941 11.8629 6.48432 11.8629C6.23471 11.8646 5.28723 11.5708 5.22797 11.5527H5.22549L5.03097 12.0028L4.66702 11.6745L4.60941 11.6226L4.56267 11.5807L4.15027 12.2892L3.65191 12.7063C3.65191 12.7063 3.29462 11.4943 3.71785 10.6525C3.75041 10.5883 3.78297 10.5266 3.81636 10.4657C4.22624 9.72677 4.75802 9.22152 5.60615 8.71302C5.6771 8.67021 5.75141 8.62992 5.82736 8.59204C5.82736 8.59782 5.82901 8.60357 5.82984 8.60935C5.83654 8.65954 5.84406 8.70972 5.85323 8.76072C5.05184 9.11541 4.46497 9.59267 4.09935 10.1884C3.55925 11.068 3.65775 11.9913 3.74457 12.411C3.80467 12.369 3.86895 12.3287 3.93573 12.2925C3.97497 12.2702 4.01504 12.2505 4.05511 12.2316L4.26798 11.9403L4.66115 11.4013L5.00845 11.7469L5.23384 11.4276L5.71884 11.5642L5.72549 11.5659C5.71802 11.2565 5.76558 10.9899 5.84236 10.7644C5.84406 10.7603 5.84571 10.757 5.84654 10.7537C5.85241 10.7397 5.85575 10.7331 5.85575 10.7331L6.33658 10.5406C6.33658 10.5324 6.33741 10.5241 6.33823 10.5159C6.3491 10.3809 6.36745 10.2501 6.39332 10.1209C6.39502 10.1127 6.39584 10.1053 6.39749 10.0979C6.41419 10.0164 6.43423 9.93578 6.4568 9.85598C6.4568 9.85187 6.45762 9.85019 6.45928 9.84689C6.49267 9.72514 6.53275 9.60745 6.57949 9.49225C6.71388 9.15569 6.89836 8.84301 7.12293 8.56491H7.12375C7.20223 8.46698 7.28654 8.37317 7.37506 8.28432H7.37588C7.38506 8.27442 7.39506 8.26457 7.4051 8.25467C7.46354 8.19707 7.52362 8.14195 7.58541 8.08928H7.58623C7.60375 8.07364 7.62045 8.05885 7.63802 8.04484C7.68641 8.03747 7.72732 8.03087 7.76154 8.02594H7.76236C7.82584 8.01689 7.86588 8.01192 7.87675 8.01111Z" fill="url(#paint1_radial_510_41)"/>
<path d="M7.3751 8.28455C7.28662 8.37339 7.20231 8.4672 7.12384 8.56513H7.12301C6.89927 8.64823 6.6931 8.73463 6.50275 8.82433C6.40758 8.86959 6.31575 8.91485 6.2281 8.96173C6.18471 8.98397 6.14297 9.00617 6.10205 9.02923C6.09205 9.03416 6.08288 9.0399 6.07366 9.04483C6.02192 9.07449 5.97184 9.10329 5.9234 9.1329C4.11694 10.2232 4.20376 11.5702 4.26804 11.9405L4.05517 12.2318C4.0151 12.2507 3.97503 12.2704 3.9358 12.2927C3.86901 12.3289 3.80474 12.3692 3.74463 12.4112C3.65781 11.9915 3.55931 11.0682 4.09941 10.1886C4.46505 9.59289 5.05192 9.11563 5.85331 8.76095C5.90758 8.73626 5.96266 8.71325 6.01857 8.691C6.02775 8.68607 6.03697 8.68277 6.04697 8.67952C6.08705 8.6622 6.12792 8.6466 6.16966 8.63177C6.27236 8.59226 6.37836 8.55442 6.48775 8.51987C6.76405 8.42936 7.05957 8.35119 7.3751 8.28455Z" fill="url(#paint2_radial_510_41)"/>
<path d="M5.82987 8.60925C5.83656 8.65944 5.84408 8.70962 5.85326 8.76062C5.05187 9.11531 4.465 9.59257 4.09937 10.1883C3.55927 11.0679 3.65777 11.9912 3.74459 12.4109C3.80469 12.3689 3.86897 12.3286 3.93575 12.2924C3.97499 12.2702 4.01506 12.2504 4.05513 12.2315L4.268 11.9402C4.27885 12.0035 4.28887 12.0381 4.28887 12.0381L4.15029 12.2891L3.65944 12.5499C3.65944 12.5499 3.38313 11.6061 3.61019 10.9758C3.66528 10.8227 3.7304 10.6491 3.81638 10.4656C4.08601 9.89291 4.56352 9.21568 5.60617 8.71292C5.68295 8.6759 5.75726 8.64131 5.82987 8.60925Z" fill="url(#paint3_radial_510_41)"/>
<path d="M7.73412 8.08301L7.72742 8.0888L7.55547 8.24844L7.26916 8.51257C7.24494 8.5208 7.22155 8.52984 7.19821 8.53807C7.17229 8.54711 7.14812 8.55616 7.1239 8.56524C7.20238 8.46731 7.28668 8.3735 7.37516 8.28461H7.37599C7.38516 8.27476 7.39521 8.2649 7.40521 8.255C7.46364 8.1974 7.52377 8.14228 7.58551 8.08961H7.58638C7.61473 8.08713 7.63894 8.0855 7.65899 8.08468C7.70908 8.0822 7.73412 8.08301 7.73412 8.08301Z" fill="url(#paint4_radial_510_41)"/>
<path d="M5.03931 15.1487C5.03931 15.1487 5.90165 16.0819 6.85165 16.1666C7.80161 16.2514 8.55961 16.0761 9.51544 15.5931C10.4713 15.1101 11.311 14.0494 11.311 14.0494C11.311 14.0494 10.5055 14.6328 9.34931 14.2288C8.19396 13.8248 7.40509 13.3574 7.31161 13.1838C7.21809 13.0093 6.86165 14.4304 6.86165 14.4304L6.36996 14.358L6.49018 14.9718L5.66209 14.9488L5.04018 15.1496L5.03931 15.1487Z" fill="url(#paint5_radial_510_41)"/>
<path d="M6.59703 13.6592C6.59703 13.6592 6.34747 12.7689 6.07447 12.559C5.80151 12.3492 5.67212 12.2842 5.67212 12.2842L6.66716 12.2307L7.11712 12.9211L6.5979 13.66L6.59703 13.6592Z" fill="#EFF1EC"/>
<path d="M5.70715 15.0301L6.65711 14.9856L6.41837 14.4442L6.90754 14.5108L7.3575 13.2642L7.12211 12.8519L6.46511 13.7892L5.70715 15.0301Z" fill="url(#paint6_linear_510_41)"/>
<path d="M4.15027 12.2894L4.68453 11.5143L5.02845 11.9973L5.22632 11.5521L6.5394 11.8245L6.77314 12.2384L5.61866 12.3009L4.15027 12.2894Z" fill="url(#paint7_linear_510_41)"/>
<path d="M5.40466 14.8777C6.18423 14.4474 6.52471 13.5855 6.16518 12.9527C5.80566 12.3199 4.88223 12.1557 4.10265 12.586C3.32308 13.0164 2.98258 13.8783 3.34211 14.5111C3.70165 15.1439 4.6251 15.3081 5.40466 14.8777Z" fill="url(#paint8_radial_510_41)"/>
<path d="M5.97606 15.0079C5.97606 15.0079 7.56963 16.7351 10.5832 14.3455L11.1976 14.1793C11.1976 14.1793 10.8353 14.8278 9.54058 15.6383C8.24667 16.4488 7.20319 16.2719 6.54036 16.1336C5.87671 15.9954 5.20471 15.2696 5.20471 15.2696L5.68719 14.994L5.97689 15.0088L5.97606 15.0079Z" fill="url(#paint9_radial_510_41)"/>
<path d="M7.31083 13.1817L7.31418 13.1842C7.31418 13.1842 7.32 13.1891 7.32418 13.1916C7.41518 13.2648 7.95361 13.6903 8.42779 14.0021L8.43279 14.0054C8.64731 14.1461 8.84766 14.263 8.98874 14.314C8.98874 14.314 8.5647 14.5197 7.92274 14.3691C7.74744 14.3288 7.55709 14.2613 7.35509 14.156C7.26909 14.1124 7.18144 14.0606 7.09131 14.0013L7.31166 13.1809L7.31083 13.1817Z" fill="#777136"/>
<path d="M6.54872 11.7974C6.55037 11.8287 6.5512 11.8459 6.5512 11.8459L6.54372 11.8435L6.47189 11.8229L5.72646 11.6024C5.72646 11.5909 5.72563 11.5785 5.72563 11.5678V11.5662C5.71811 11.2568 5.76568 10.9902 5.8425 10.7647C5.84415 10.7606 5.84581 10.7573 5.84668 10.754C5.8525 10.7401 5.85585 10.7335 5.85585 10.7335L6.33668 10.5409C6.33668 10.5327 6.3375 10.5244 6.33833 10.5162C6.3492 10.3813 6.36755 10.2505 6.39346 10.1212C6.39511 10.113 6.39594 10.1056 6.39763 10.0982C6.41433 10.0168 6.43433 9.9361 6.45689 9.8563C6.45689 9.8563 6.45937 9.853 6.46107 9.85218C6.50528 9.81516 6.53868 9.79128 6.55624 9.77975C6.56041 9.77645 6.56289 9.77483 6.56541 9.7732C6.56876 9.77071 6.57041 9.7699 6.57041 9.7699C6.55372 9.84888 6.54285 9.95586 6.5345 10.0793V10.0809C6.52615 10.2035 6.52198 10.3426 6.52115 10.4882C6.5195 10.5458 6.5195 10.6043 6.5195 10.6635V10.666C6.5195 11.1465 6.5412 11.6435 6.54872 11.7974Z" fill="#777136"/>
<path d="M8.02963 8.16092L8.01124 8.04323L7.99037 7.90746H7.98954L7.97954 7.84082C7.96785 7.84245 7.95615 7.84412 7.94528 7.84656C7.92611 7.84905 7.90772 7.85153 7.88937 7.85479C7.80254 7.91406 7.71906 7.97822 7.63811 8.04491C7.62059 8.05888 7.60389 8.07371 7.58632 8.08931H7.5855C7.52372 8.14198 7.46363 8.19714 7.40519 8.25474C7.39519 8.26459 7.38515 8.27445 7.37598 8.28435C7.41019 8.27612 7.44441 8.26952 7.4795 8.26296C7.50454 8.25718 7.52959 8.25225 7.55545 8.24814C7.63559 8.23168 7.71659 8.21685 7.79919 8.20288H7.80006C7.87267 8.19054 7.94528 8.17901 8.02041 8.16748C8.02376 8.16666 8.02711 8.16666 8.03046 8.16585V8.16092H8.02963Z" fill="#777136"/>
<path d="M4.66784 15.1099C4.65784 15.1115 4.64784 15.1123 4.6378 15.1123C4.10522 15.1461 3.60852 14.9272 3.36477 14.4976C3.11851 14.064 3.19364 13.5258 3.51002 13.0938C3.51002 13.0938 3.5103 13.0933 3.51085 13.0922C3.5192 13.0807 3.52755 13.0692 3.53673 13.0585C3.54591 13.0461 3.5551 13.0346 3.56595 13.0231C3.70369 12.8503 3.88484 12.6981 4.09854 12.5796C4.33729 12.4479 4.59023 12.3747 4.83567 12.355C4.85319 12.3525 4.87071 12.3517 4.88823 12.3508C4.8991 12.35 4.9091 12.35 4.91997 12.3492C5.43254 12.3327 5.90501 12.5508 6.14123 12.9655C6.37914 13.3851 6.31654 13.9036 6.02688 14.3281C6.01019 14.352 5.99349 14.3759 5.97514 14.3989C5.83154 14.589 5.63954 14.7568 5.40832 14.8844C5.16958 15.016 4.91497 15.0901 4.66784 15.1099ZM11.5256 14.092L11.4864 14.0591L11.3611 13.9546L11.2802 13.8871C11.2343 13.9406 11.1884 13.9933 11.1424 14.0443C11.0915 14.1019 11.0406 14.1578 10.9897 14.2129C10.9805 14.2228 10.9713 14.2327 10.9621 14.2426C10.9396 14.2664 10.9179 14.2903 10.8962 14.3125C10.6808 14.5396 10.4663 14.7445 10.2517 14.928C10.1682 15.0004 10.0839 15.0695 10.0004 15.1353C9.96458 15.1633 9.92867 15.1913 9.89275 15.2176C9.88528 15.2242 9.87693 15.23 9.86941 15.235C9.82097 15.2711 9.77258 15.3065 9.72497 15.3402C8.96614 15.8718 8.21401 16.1376 7.47775 16.1335C6.43428 16.1278 5.68628 15.5632 5.36906 15.2703C5.43671 15.2415 5.50515 15.2086 5.57193 15.1716C5.61532 15.1477 5.65706 15.123 5.69797 15.0967L6.04275 15.0712L6.7181 15.0218L6.60036 14.5495L6.99523 14.5264L7.13297 14.0409L7.13549 14.0311L7.33332 13.3325V13.3309L7.34084 13.3062L7.35419 13.2584L7.35836 13.242L7.36336 13.2247L7.40093 13.0922L7.23984 13.0486L7.23814 13.0552L7.2081 13.1605L6.86667 14.3693L6.57115 14.3865H6.57032L6.39167 14.3973L6.50941 14.872L6.46932 14.8745L5.94341 14.9124C6.12036 14.761 6.26645 14.5849 6.37584 14.3965C6.38332 14.3849 6.39001 14.3734 6.39584 14.3611C6.51941 14.1397 6.59371 13.9019 6.61458 13.6633L6.61793 13.5719V13.5703L6.61958 13.5078C6.61793 13.265 6.55697 13.0247 6.43258 12.805C6.30906 12.5878 6.13541 12.4126 5.92923 12.2842C5.49097 12.0085 4.90575 11.941 4.34397 12.1171L4.66701 11.6744L4.68123 11.6547L5.03097 12.0028L5.30314 11.6176L6.51441 11.9583H6.51523L6.63375 11.992H6.63462L6.64128 11.9937L6.68719 11.8357L6.54862 11.797L6.52441 11.7896L6.4568 11.7707L5.84658 11.5996L5.84071 11.5979L5.72554 11.5658L5.71884 11.5641L5.23384 11.4276L5.00845 11.7468L4.66119 11.4013L4.268 11.9402L4.05513 12.2315C4.01506 12.2504 3.97499 12.2702 3.93576 12.2924C3.86898 12.3286 3.8047 12.3689 3.74459 12.4109C3.65778 11.9912 3.55927 11.068 4.09938 10.1884C4.46501 9.59259 5.05184 9.11534 5.85323 8.76069C5.90749 8.73601 5.96262 8.71295 6.01854 8.69075C6.02771 8.68582 6.03688 8.68252 6.04693 8.67922C6.08697 8.66195 6.12788 8.64631 6.16962 8.63152C6.27232 8.59201 6.37832 8.55416 6.48767 8.51958C6.76401 8.42906 7.05949 8.35089 7.37506 8.28425H7.37588C7.3851 8.27439 7.3951 8.26449 7.4051 8.25464C7.46354 8.19704 7.52367 8.14192 7.58541 8.08925H7.58628C7.6038 8.07361 7.62049 8.05878 7.63801 8.04481C7.71897 7.97816 7.80249 7.91396 7.88928 7.85474C7.75241 7.87612 7.61797 7.89999 7.48693 7.92549C7.13215 7.99381 6.79988 8.07609 6.49019 8.17316C6.3658 8.21019 6.24558 8.25134 6.12871 8.29411C6.09201 8.30731 6.05528 8.32128 6.01854 8.33611C6.00684 8.34022 5.99432 8.34434 5.98262 8.35008C5.92254 8.37232 5.8641 8.39615 5.80649 8.42169C4.8941 8.80844 4.22626 9.34411 3.81138 10.0222C3.12268 11.1495 3.36059 12.3031 3.45659 12.6487C2.88978 13.2082 2.71113 14.0196 3.07343 14.659C3.43656 15.2975 4.23211 15.5715 5.01262 15.388C5.26223 15.6496 6.13541 16.4528 7.47023 16.4618C8.30754 16.4684 9.15397 16.1623 9.99962 15.5493C10.0497 15.5131 10.1006 15.4752 10.1507 15.4366C10.1599 15.43 10.1691 15.4225 10.1783 15.4151C10.21 15.3904 10.2425 15.3649 10.2743 15.3394C10.3686 15.2637 10.4629 15.1839 10.5573 15.1008C10.7968 14.8893 11.0356 14.654 11.2735 14.394C11.3603 14.2993 11.448 14.2006 11.5348 14.0994L11.5256 14.092Z" fill="#777136"/>
<path d="M8.42767 14.003L7.92263 14.37C7.92263 14.37 7.51859 14.2951 7.13293 14.0417L7.34998 13.3217L8.42767 14.003Z" fill="url(#paint10_radial_510_41)"/>
<path d="M6.46347 11.763L6.45347 11.7605L5.84655 11.6001L5.84073 11.5984L5.72551 11.568L5.71886 11.5663V11.5647C5.70799 11.1384 5.80564 10.8546 5.84238 10.7649C5.84407 10.7607 5.84573 10.7574 5.84655 10.7542C5.85242 10.7402 5.85573 10.7336 5.85573 10.7336L6.3366 10.5411L6.3466 10.5369L6.4376 10.5007V10.5188L6.46347 11.763Z" fill="url(#paint11_radial_510_41)"/>
<path d="M16.3482 12.7064C16.3482 12.7064 16.7046 11.4944 16.2814 10.6517C15.8582 9.80913 15.3106 9.2636 14.3931 8.7131C13.4765 8.1626 12.12 8.01038 12.12 8.01038C12.12 8.01038 13.0458 8.38315 13.2996 9.56558C13.5542 10.748 13.5617 11.6548 13.4598 11.8243C13.358 11.9938 14.773 11.5511 14.773 11.5511L14.9674 12.002L15.4358 11.5808L15.8481 12.2892L16.3465 12.7064H16.3482Z" fill="url(#paint12_radial_510_41)"/>
<path d="M15.7112 12.038C15.7112 12.038 16.3724 9.79659 12.7311 8.51208L12.2661 8.08256C12.2661 8.08256 13.0166 8.04883 14.394 8.71286C15.7714 9.37693 16.1629 10.3462 16.3899 10.9757C16.617 11.6052 16.3407 12.5499 16.3407 12.5499L15.8499 12.289L15.7112 12.038Z" fill="url(#paint13_radial_510_41)"/>
<path d="M14.9615 15.1488C14.9615 15.1488 14.0992 16.0819 13.1492 16.1666C12.1992 16.2514 11.4413 16.0761 10.4854 15.5931C9.5296 15.1101 8.68982 14.0494 8.68982 14.0494C8.68982 14.0494 9.49538 14.6328 10.6516 14.2288C11.8069 13.8248 12.5957 13.3574 12.6893 13.1838C12.7827 13.0094 13.1392 14.4304 13.1392 14.4304L13.6309 14.358L13.5107 14.9719L14.3388 14.9488L14.9607 15.1496L14.9615 15.1488Z" fill="url(#paint14_radial_510_41)"/>
<path d="M13.3863 13.6592C13.3863 13.6592 13.6359 12.7689 13.9089 12.559C14.1818 12.3492 14.3112 12.2842 14.3112 12.2842L13.3162 12.2307L12.8662 12.9211L13.3854 13.66L13.3863 13.6592Z" fill="#EFF1EC"/>
<path d="M14.2929 15.0301L13.343 14.9856L13.5817 14.4442L13.0925 14.5108L12.6426 13.2642L12.878 12.8519L13.5358 13.7892L14.2929 15.0301Z" fill="url(#paint15_linear_510_41)"/>
<path d="M15.8498 12.2894L15.3155 11.5143L14.9725 11.9973L14.7746 11.5521L13.4607 11.8245L13.2269 12.2384L14.3814 12.3009L15.8498 12.2894Z" fill="url(#paint16_linear_510_41)"/>
<path d="M16.659 14.5117C17.0185 13.8789 16.678 13.017 15.8984 12.5867C15.1188 12.1563 14.1954 12.3205 13.8359 12.9533C13.4764 13.5861 13.8169 14.448 14.5964 14.8783C15.376 15.3087 16.2994 15.1445 16.659 14.5117Z" fill="url(#paint17_radial_510_41)"/>
<path d="M14.0241 15.0081C14.0241 15.0081 12.4305 16.7353 9.41693 14.3457L8.80249 14.1794C8.80249 14.1794 9.1648 14.8279 10.4595 15.6384C11.7534 16.4489 12.7969 16.272 13.4598 16.1337C14.1234 15.9955 14.7954 15.2697 14.7954 15.2697L14.3129 14.9941L14.0232 15.0089L14.0241 15.0081Z" fill="url(#paint18_radial_510_41)"/>
<path d="M12.6893 13.1822L12.6859 13.1847C12.6859 13.1847 12.6801 13.1896 12.6759 13.1921C12.5849 13.2654 12.0465 13.6908 11.5723 14.0026L11.5673 14.0059C11.3528 14.1466 11.1524 14.2635 11.0114 14.3145C11.0114 14.3145 11.4354 14.5202 12.0774 14.3696C12.2527 14.3293 12.443 14.2618 12.645 14.1565C12.731 14.1129 12.8187 14.061 12.9088 14.0018L12.6884 13.1814L12.6893 13.1822Z" fill="#335681"/>
<path d="M13.4297 9.76949C13.4297 9.76949 14.3212 10.3233 14.2728 11.6012L13.4481 11.8448C13.4481 11.8448 13.5307 10.2681 13.4288 9.76868L13.4297 9.76949Z" fill="#335681"/>
<path d="M13.3855 13.6632C13.4248 14.1191 13.6619 14.5741 14.0567 14.9123L13.4915 14.872L13.6092 14.3964L13.1342 14.3692L12.7603 13.0485L12.5992 13.093L13.0049 14.5272L13.3997 14.5502L13.282 15.0234L14.3021 15.0974C14.343 15.1238 14.3848 15.1484 14.429 15.1731C14.4949 15.2093 14.5634 15.2431 14.631 15.2719C14.3138 15.5648 13.5659 16.1293 12.5232 16.1351C11.2844 16.1425 10.0047 15.3863 8.71994 13.8887L8.46533 14.101C9.81851 15.6784 11.1859 16.4741 12.5307 16.4642C13.8647 16.4552 14.7387 15.6512 14.9875 15.3904C15.768 15.5739 16.5635 15.3007 16.9267 14.6613C17.2898 14.022 17.1112 13.2106 16.5435 12.6511C16.6395 12.3055 16.8782 11.151 16.1895 10.0245C15.4959 8.8898 14.0934 8.15501 12.0215 7.84314L11.9706 8.16817C13.9373 8.46521 15.2605 9.1457 15.9007 10.1907C16.4409 11.0704 16.3432 11.9936 16.2555 12.4133C16.1954 12.3713 16.1311 12.331 16.0643 12.2948C16.0251 12.2734 15.985 12.2528 15.945 12.2347L15.3398 11.4044L14.9925 11.75L14.7662 11.43L13.3137 11.8381L13.3596 11.9961L14.6978 11.6201L14.9699 12.0051L15.3197 11.6579L15.657 12.1203C14.8314 11.862 13.9557 12.1277 13.5692 12.8074C13.444 13.0271 13.3839 13.2674 13.3814 13.5101L13.3864 13.6657L13.3855 13.6632ZM15.9015 12.5795C16.6671 13.0025 16.996 13.8623 16.6353 14.4984C16.2739 15.1345 15.3573 15.3073 14.5918 14.8851C13.8271 14.463 13.4982 13.6023 13.8597 12.9662C14.2203 12.331 15.1369 12.1574 15.9015 12.5795Z" fill="#1C4372"/>
<path d="M11.5723 14.0035L12.0773 14.3705C12.0773 14.3705 12.4814 14.2956 12.867 14.0421L12.65 13.3221L11.5723 14.0035Z" fill="#1C4372"/>
<path d="M13.5625 10.5004L14.1435 10.7332C14.1435 10.7332 14.2946 11.0418 14.2804 11.566L13.5358 11.7626L13.5625 10.5004Z" fill="#1C4372"/>
<path d="M11.4363 4.45068C11.4363 4.45068 12.6835 4.7362 13.2227 5.51217C13.762 6.28814 13.9774 7.02541 14.0166 8.0836C14.0558 9.14178 13.5274 10.3819 13.5274 10.3819C13.5274 10.3819 13.6501 9.40347 12.7277 8.60693C11.8053 7.81043 11.0064 7.3603 10.8069 7.36523C10.6074 7.3702 11.6901 6.36875 11.6901 6.36875L11.3862 5.9812L11.9881 5.78453L11.5632 5.08347L11.4371 4.45068H11.4363Z" fill="url(#paint19_radial_510_41)"/>
<path d="M11.7168 5.32579C11.7168 5.32579 14.0242 5.85242 13.3814 9.61121L13.5342 10.2209C13.5342 10.2209 13.9307 9.59231 14.0158 8.08318C14.1009 6.57405 13.4348 5.76354 12.9882 5.26078C12.5416 4.75802 11.5707 4.53418 11.5707 4.53418L11.5624 5.08387L11.7168 5.32579Z" fill="url(#paint20_radial_510_41)"/>
<path d="M9.23658 7.36523H9.22323C9.20406 7.36523 9.17984 7.36934 9.15062 7.37676H9.1498C9.0588 7.40226 8.92106 7.46397 8.74823 7.5619C8.74658 7.56271 8.74493 7.56357 8.74241 7.56438C8.54041 7.67791 8.28997 7.83923 8.01115 8.04327C7.94267 8.09345 7.87171 8.14694 7.79993 8.20291H7.7991C7.64049 8.32553 7.47519 8.46048 7.30575 8.60693C7.08871 8.79455 6.92928 8.99204 6.81323 9.1846C6.81323 9.1846 6.81293 9.18511 6.81241 9.18623C6.68632 9.39443 6.61036 9.59603 6.56528 9.77294C6.54193 9.86427 6.52688 9.949 6.51688 10.0247C6.48849 10.242 6.50602 10.3819 6.50602 10.3819C6.50602 10.3819 6.47932 10.3185 6.43758 10.2082C6.43758 10.2082 6.43675 10.2058 6.43588 10.2049C6.42423 10.1728 6.41171 10.1366 6.39749 10.098C6.41419 10.0165 6.43423 9.93584 6.45675 9.85604C6.45675 9.85193 6.45762 9.85025 6.45928 9.847C6.49267 9.7252 6.53275 9.60751 6.57949 9.49231C6.71388 9.1558 6.89836 8.84311 7.12293 8.56497H7.12375C7.20223 8.46704 7.28654 8.37323 7.37501 8.28438H7.37588C7.38506 8.27448 7.39506 8.26463 7.4051 8.25477C7.46354 8.19717 7.52362 8.14201 7.58541 8.08934H7.58623C7.60375 8.07374 7.62045 8.05891 7.63797 8.04494C7.71897 7.97825 7.80245 7.9141 7.88928 7.85483C7.75236 7.87625 7.61797 7.90008 7.48688 7.92563C7.1321 7.9939 6.79988 8.07618 6.49015 8.1733C6.3658 8.21033 6.24558 8.25147 6.12871 8.29424C6.09197 8.3074 6.05523 8.32141 6.01849 8.3362C6.01432 8.25065 6.01349 8.1667 6.01684 8.08278C6.05606 7.02541 6.27228 6.28728 6.81071 5.51217C7.06367 5.14848 7.47101 4.89254 7.83415 4.72304C7.84249 4.71893 7.85084 4.71563 7.85836 4.71237C7.86171 4.7107 7.86423 4.70907 7.86754 4.70825C8.26406 4.52723 8.59715 4.45068 8.59715 4.45068L8.4711 5.08347L8.42184 5.16408L8.04536 5.78453L8.13971 5.815L8.60967 5.96885L8.64723 5.9812L8.63054 6.00258L8.52371 6.13835H8.52284L8.34336 6.36875C8.34336 6.36875 9.0688 7.0402 9.22158 7.2805C9.25415 7.32657 9.26249 7.35785 9.23658 7.36523Z" fill="url(#paint21_radial_510_41)"/>
<path d="M9.16479 6.46506C9.16479 6.46506 10.0747 6.68561 10.3944 6.55313C10.7141 6.42062 10.8352 6.34082 10.8352 6.34082L10.3969 7.22291L9.56549 7.27228L9.16562 6.46506H9.16479Z" fill="#EFF1EC"/>
<path d="M8.37606 5.0835L7.95032 5.92195L8.54632 5.98122L8.24832 6.36878L9.13154 7.36525L9.61236 7.36444L9.10397 6.3408L8.37606 5.0835Z" fill="url(#paint22_radial_510_41)"/>
<path d="M11.5624 5.0835L11.9881 5.92195L11.392 5.98122L11.69 6.36878L10.806 7.36525L10.326 7.36444L10.8344 6.3408L11.5624 5.0835Z" fill="url(#paint23_radial_510_41)"/>
<path d="M9.99055 6.49138C10.7263 6.49138 11.3229 5.77742 11.3229 4.89671C11.3229 4.01599 10.7263 3.302 9.99055 3.302C9.25472 3.302 8.6582 4.01599 8.6582 4.89671C8.6582 5.77742 9.25472 6.49138 9.99055 6.49138Z" fill="url(#paint24_radial_510_41)"/>
<path d="M6.59866 9.61089L6.55609 9.77957L6.50435 9.98696L6.44592 10.2207C6.44592 10.2207 6.4434 10.2165 6.43757 10.2083C6.43757 10.2075 6.43675 10.2058 6.43588 10.205C6.4267 10.1877 6.4117 10.1606 6.39331 10.1211C6.39501 10.1128 6.39583 10.1055 6.39748 10.098C6.41418 10.0166 6.43422 9.93592 6.45675 9.85612C6.45675 9.852 6.45761 9.85038 6.45927 9.84708C6.49266 9.72528 6.53275 9.60763 6.57948 9.49243C6.58531 9.53109 6.59201 9.5706 6.59866 9.61089Z" fill="url(#paint25_radial_510_41)"/>
<path d="M8.41774 5.08387L8.39518 5.11922L8.26331 5.32579C8.26331 5.32579 8.25914 5.32661 8.25161 5.32824C8.23827 5.33235 8.21153 5.33977 8.17479 5.35211C7.82588 5.47224 6.56453 6.05235 6.49022 8.17369C6.36583 8.21072 6.24561 8.25187 6.12874 8.29464C6.092 8.30779 6.05531 8.32181 6.01857 8.33659C6.00687 8.34071 5.99435 8.34482 5.98266 8.35061C5.97514 8.26502 5.96848 8.17532 5.96348 8.08318C5.87831 6.57405 6.54448 5.76354 6.99109 5.26078C7.20561 5.01885 7.54287 4.84112 7.83422 4.72344C7.84257 4.71932 7.85092 4.71602 7.85844 4.71277C7.86174 4.71109 7.86427 4.70947 7.86761 4.70865C8.16561 4.59015 8.40853 4.53418 8.40853 4.53418L8.41774 5.08387Z" fill="url(#paint26_radial_510_41)"/>
<path d="M9.2275 7.36516L9.22332 7.36679C9.22332 7.36679 9.21663 7.36928 9.21163 7.37172C9.2008 7.37583 9.18493 7.38243 9.16406 7.39066C9.08306 7.42276 8.93115 7.48447 8.74832 7.56179C8.74667 7.56265 8.74498 7.56346 8.7425 7.56427C8.51459 7.66139 8.23828 7.78396 7.99037 7.90739C7.97867 7.91317 7.96698 7.91892 7.95528 7.9247L7.95028 7.92715C7.88433 7.96006 7.82172 7.99297 7.76245 8.02589H7.76163C7.72572 8.04565 7.6915 8.0654 7.65893 8.0843C7.55459 8.14439 7.46693 8.2028 7.40515 8.25466C7.46359 8.19706 7.52372 8.1419 7.5855 8.08927H7.58632C7.60385 8.07363 7.62054 8.0588 7.63806 8.04483C7.71906 7.97819 7.80254 7.91399 7.88933 7.85476C7.75246 7.87615 7.61802 7.90002 7.48698 7.92552C7.55211 7.75435 7.66898 7.53466 7.87767 7.31082C7.87767 7.31082 7.8785 7.30919 7.88185 7.3067C7.88432 7.30345 7.88767 7.30015 7.89019 7.29685C7.89185 7.29436 7.89437 7.29192 7.89685 7.28943C8.01541 7.166 8.1615 7.04258 8.34345 6.92656C8.41106 6.88293 8.48372 6.84098 8.56132 6.79983C8.57719 6.7916 8.59306 6.78338 8.60893 6.77515L9.15489 7.29603L9.2275 7.36516Z" fill="#244C0F"/>
<path d="M12.61 8.39536C12.61 8.39536 12.5558 7.35856 11.4004 6.77515L10.7819 7.36516C10.7819 7.36516 12.2177 8.06459 12.61 8.39536Z" fill="#244C0F"/>
<path d="M8.81849 4.13745C8.81849 4.13745 8.82101 4.13166 8.82266 4.12836C8.82266 4.12836 8.82266 4.12674 8.82432 4.12592C9.05475 3.65111 9.49049 3.32939 9.99053 3.32939C10.4906 3.32939 10.9263 3.65111 11.1559 4.12592C11.1567 4.12674 11.1575 4.12836 11.1575 4.12836C11.1592 4.13166 11.1609 4.13415 11.1617 4.13745C11.2694 4.36288 11.3304 4.62208 11.3304 4.89774C11.3304 5.17339 11.2694 5.43178 11.1617 5.65725C11.1609 5.66055 11.1592 5.66299 11.1575 5.66629C11.1575 5.66629 11.1567 5.66796 11.1559 5.66878C10.9263 6.14355 10.4897 6.46528 9.99053 6.46528C9.49132 6.46528 9.05475 6.14355 8.82432 5.66878C8.82349 5.66796 8.82266 5.66629 8.82266 5.66629C8.82101 5.66299 8.81932 5.66055 8.81849 5.65725C8.7108 5.43178 8.64988 5.17339 8.64988 4.89774C8.64988 4.62208 8.7108 4.36288 8.81849 4.13745ZM13.7345 5.89999C13.0734 4.75704 11.9356 4.39828 11.5824 4.31188C11.3646 3.55074 10.7335 3.00024 9.99053 3.00024C9.24758 3.00024 8.61649 3.55074 8.39775 4.31188C8.04466 4.39828 6.90684 4.75704 6.24653 5.89999C5.84501 6.59368 5.69893 7.43792 5.80658 8.42205C5.86419 8.39655 5.92262 8.37268 5.98275 8.35048C5.9944 8.34469 6.00692 8.34058 6.01862 8.33646C6.05536 8.32168 6.0921 8.30766 6.12884 8.29451C6.04701 7.42228 6.18223 6.67678 6.53371 6.06705C7.04875 5.17258 7.91358 4.80559 8.32762 4.67556C8.32014 4.74799 8.31597 4.82286 8.31597 4.89774C8.31597 4.94711 8.31762 4.99566 8.32097 5.04341L8.17488 5.35198L7.88853 5.95678L8.36436 6.08676L8.19158 6.43734L8.55388 6.79279L8.56136 6.80021L9.08397 7.31282L9.08645 7.31449L9.14988 7.37702H9.15075L9.1641 7.39099L9.26258 7.48729L9.38032 7.37042L9.37445 7.36468L9.27762 7.26924L8.39358 6.40356L8.52297 6.13944H8.52379L8.60145 5.98146L8.1231 5.85062L8.13979 5.81522L8.36353 5.34456C8.41197 5.57166 8.49627 5.78231 8.60979 5.96912C8.61649 5.98065 8.62314 5.99132 8.63066 6.00285C8.76675 6.21679 8.94036 6.39782 9.14153 6.53196L9.22171 6.57966L9.27679 6.61258C9.49301 6.72945 9.7351 6.79442 9.99053 6.79442C10.246 6.79442 10.4831 6.73108 10.6976 6.61669C11.1551 6.37395 11.5007 5.90329 11.6192 5.33471L11.8529 5.82842L11.8638 5.85062L11.3854 5.98146L11.5933 6.40356L10.7084 7.27086L10.6116 7.36549L10.6066 7.37042L10.7243 7.48729L10.8445 7.36879L10.9013 7.31368L11.3161 6.90718L11.3195 6.90388L11.433 6.79279L11.4381 6.78786L11.7953 6.43734L11.6225 6.08676L12.0984 5.95678L11.8128 5.35528L11.6601 5.03025C11.6634 4.98662 11.6651 4.94218 11.6651 4.89774C11.6651 4.82286 11.6609 4.74799 11.6534 4.67556C12.0674 4.80559 12.9323 5.17258 13.4474 6.06705C13.798 6.67511 13.9332 7.41816 13.8531 8.28791C13.8489 8.33814 13.8431 8.38914 13.8364 8.44099C13.8364 8.44922 13.8355 8.45745 13.8339 8.46568C13.828 8.51749 13.8205 8.57098 13.8121 8.62446C13.7963 8.73144 13.7771 8.84089 13.7546 8.95198C13.6986 9.23586 13.6218 9.53128 13.5241 9.83899C13.5241 9.83899 13.5233 9.84396 13.5217 9.84641C13.515 9.87028 13.5074 9.89334 13.5 9.91716V9.91884C13.4924 9.94185 13.4849 9.96409 13.4766 9.98711C13.4724 10.0011 13.4682 10.0143 13.4632 10.0282C13.4474 10.0752 13.4315 10.1212 13.4148 10.169C13.3839 10.2578 13.3514 10.3459 13.3171 10.4356L13.4607 10.4882L13.4808 10.4957L13.5626 10.5261L13.6294 10.5508C13.6318 10.5442 13.6344 10.5368 13.6368 10.5302C13.6394 10.5253 13.641 10.5211 13.6427 10.5162C13.6953 10.3755 13.7445 10.2381 13.7896 10.1023C13.9031 9.76331 13.9933 9.43665 14.0601 9.12229C14.0876 8.99724 14.1102 8.87462 14.1294 8.75368C14.1386 8.70182 14.1461 8.65164 14.1528 8.60145C14.1536 8.59485 14.1544 8.58825 14.1553 8.58251C14.1628 8.52572 14.1703 8.46979 14.1761 8.41464C14.2821 7.43299 14.1352 6.59201 13.7354 5.89999H13.7345ZM6.58045 10.2076C6.56458 10.1649 6.54953 10.1229 6.53453 10.0809V10.0793L6.51701 10.025C6.51197 10.0127 6.50779 9.99945 6.50449 9.98711C6.48862 9.94185 6.4744 9.89659 6.46106 9.85219C6.4594 9.85052 6.4594 9.84889 6.4594 9.84722C6.45771 9.85052 6.45688 9.85219 6.45688 9.85545C6.43436 9.93611 6.41432 10.0168 6.39762 10.0982C6.39597 10.1056 6.3951 10.113 6.39345 10.1213C6.36758 10.2504 6.34919 10.3813 6.33836 10.5154C6.34084 10.5228 6.34336 10.5294 6.34671 10.5368C6.34836 10.5417 6.35006 10.5458 6.35171 10.5508L6.43771 10.5187L6.52119 10.4882L6.54119 10.4808L6.66393 10.4356C6.63471 10.3591 6.60714 10.2825 6.58045 10.2076Z" fill="#244C0F"/>
<path d="M7.95522 7.92484L7.87756 7.311C7.87756 7.311 8.14139 6.99995 8.55461 6.7926L9.08552 7.33072L7.95522 7.92484Z" fill="url(#paint27_linear_510_41)"/>
<path d="M12.0281 7.92485L12.1058 7.31097C12.1058 7.31097 11.9063 7.03038 11.4354 6.78601L10.8978 7.33072L12.0281 7.92485Z" fill="url(#paint28_linear_510_41)"/>
<path d="M11.4363 4.45068C11.4363 4.45068 12.6835 4.7362 13.2227 5.51217C13.762 6.28814 13.9774 7.02541 14.0166 8.0836C14.0558 9.14178 13.5274 10.3819 13.5274 10.3819C13.5274 10.3819 13.6501 9.40347 12.7277 8.60693C11.8053 7.81043 11.0064 7.3603 10.8069 7.36523C10.6074 7.3702 11.6901 6.36875 11.6901 6.36875L11.3862 5.9812L11.9881 5.78453L11.5632 5.08347L11.4371 4.45068H11.4363Z" fill="url(#paint29_radial_510_41)"/>
<path d="M11.7168 5.32579C11.7168 5.32579 14.0242 5.85242 13.3814 9.61121L13.5342 10.2209C13.5342 10.2209 13.9307 9.59231 14.0158 8.08318C14.1009 6.57405 13.4348 5.76354 12.9882 5.26078C12.5416 4.75802 11.5707 4.53418 11.5707 4.53418L11.5624 5.08387L11.7168 5.32579Z" fill="url(#paint30_radial_510_41)"/>
<path d="M9.23658 7.36523H9.22323C9.20406 7.36523 9.17984 7.36934 9.15062 7.37676H9.1498C9.0588 7.40226 8.92106 7.46397 8.74823 7.5619C8.74658 7.56271 8.74493 7.56357 8.74241 7.56438C8.54041 7.67791 8.28997 7.83923 8.01115 8.04327C7.94267 8.09345 7.87171 8.14694 7.79993 8.20291H7.7991C7.64049 8.32553 7.47519 8.46048 7.30575 8.60693C7.08871 8.79455 6.92928 8.99204 6.81323 9.1846C6.81323 9.1846 6.81293 9.18511 6.81241 9.18623C6.68632 9.39443 6.61036 9.59603 6.56528 9.77294C6.54193 9.86427 6.52688 9.949 6.51688 10.0247C6.48849 10.242 6.50602 10.3819 6.50602 10.3819C6.50602 10.3819 6.47932 10.3185 6.43758 10.2082C6.43758 10.2082 6.43675 10.2058 6.43588 10.2049C6.42423 10.1728 6.41171 10.1366 6.39749 10.098C6.41419 10.0165 6.43423 9.93584 6.45675 9.85604C6.45675 9.85193 6.45762 9.85025 6.45928 9.847C6.49267 9.7252 6.53275 9.60751 6.57949 9.49231C6.71388 9.1558 6.89836 8.84311 7.12293 8.56497H7.12375C7.20223 8.46704 7.28654 8.37323 7.37501 8.28438H7.37588C7.38506 8.27448 7.39506 8.26463 7.4051 8.25477C7.46354 8.19717 7.52362 8.14201 7.58541 8.08934H7.58623C7.60375 8.07374 7.62045 8.05891 7.63797 8.04494C7.71897 7.97825 7.80245 7.9141 7.88928 7.85483C7.75236 7.87625 7.61797 7.90008 7.48688 7.92563C7.1321 7.9939 6.79988 8.07618 6.49015 8.1733C6.3658 8.21033 6.24558 8.25147 6.12871 8.29424C6.09197 8.3074 6.05523 8.32141 6.01849 8.3362C6.01432 8.25065 6.01349 8.1667 6.01684 8.08278C6.05606 7.02541 6.27228 6.28728 6.81071 5.51217C7.06367 5.14848 7.47101 4.89254 7.83415 4.72304C7.84249 4.71893 7.85084 4.71563 7.85836 4.71237C7.86171 4.7107 7.86423 4.70907 7.86754 4.70825C8.26406 4.52723 8.59715 4.45068 8.59715 4.45068L8.4711 5.08347L8.42184 5.16408L8.04536 5.78453L8.13971 5.815L8.60967 5.96885L8.64723 5.9812L8.63054 6.00258L8.52371 6.13835H8.52284L8.34336 6.36875C8.34336 6.36875 9.0688 7.0402 9.22158 7.2805C9.25415 7.32657 9.26249 7.35785 9.23658 7.36523Z" fill="url(#paint31_radial_510_41)"/>
<path d="M9.16479 6.46506C9.16479 6.46506 10.0747 6.68561 10.3944 6.55313C10.7141 6.42062 10.8352 6.34082 10.8352 6.34082L10.3969 7.22291L9.56549 7.27228L9.16562 6.46506H9.16479Z" fill="#EFF1EC"/>
<path d="M8.37606 5.0835L7.95032 5.92195L8.54632 5.98122L8.24832 6.36878L9.13154 7.36525L9.61236 7.36444L9.10397 6.3408L8.37606 5.0835Z" fill="url(#paint32_radial_510_41)"/>
<path d="M11.5624 5.0835L11.9881 5.92195L11.392 5.98122L11.69 6.36878L10.806 7.36525L10.326 7.36444L10.8344 6.3408L11.5624 5.0835Z" fill="url(#paint33_radial_510_41)"/>
<path d="M9.99055 6.49138C10.7263 6.49138 11.3229 5.77742 11.3229 4.89671C11.3229 4.01599 10.7263 3.302 9.99055 3.302C9.25472 3.302 8.6582 4.01599 8.6582 4.89671C8.6582 5.77742 9.25472 6.49138 9.99055 6.49138Z" fill="url(#paint34_radial_510_41)"/>
<path d="M6.59866 9.61089L6.55609 9.77957L6.50435 9.98696L6.44592 10.2207C6.44592 10.2207 6.4434 10.2165 6.43757 10.2083C6.43757 10.2075 6.43675 10.2058 6.43588 10.205C6.4267 10.1877 6.4117 10.1606 6.39331 10.1211C6.39501 10.1128 6.39583 10.1055 6.39748 10.098C6.41418 10.0166 6.43422 9.93592 6.45675 9.85612C6.45675 9.852 6.45761 9.85038 6.45927 9.84708C6.49266 9.72528 6.53275 9.60763 6.57948 9.49243C6.58531 9.53109 6.59201 9.5706 6.59866 9.61089Z" fill="url(#paint35_radial_510_41)"/>
<path d="M8.41774 5.08387L8.39518 5.11922L8.26331 5.32579C8.26331 5.32579 8.25914 5.32661 8.25161 5.32824C8.23827 5.33235 8.21153 5.33977 8.17479 5.35211C7.82588 5.47224 6.56453 6.05235 6.49022 8.17369C6.36583 8.21072 6.24561 8.25187 6.12874 8.29464C6.092 8.30779 6.05531 8.32181 6.01857 8.33659C6.00687 8.34071 5.99435 8.34482 5.98266 8.35061C5.97514 8.26502 5.96848 8.17532 5.96348 8.08318C5.87831 6.57405 6.54448 5.76354 6.99109 5.26078C7.20561 5.01885 7.54287 4.84112 7.83422 4.72344C7.84257 4.71932 7.85092 4.71602 7.85844 4.71277C7.86174 4.71109 7.86427 4.70947 7.86761 4.70865C8.16561 4.59015 8.40853 4.53418 8.40853 4.53418L8.41774 5.08387Z" fill="url(#paint36_radial_510_41)"/>
<path d="M9.2275 7.36516L9.22332 7.36679C9.22332 7.36679 9.21663 7.36928 9.21163 7.37172C9.2008 7.37583 9.18493 7.38243 9.16406 7.39066C9.08306 7.42276 8.93115 7.48447 8.74832 7.56179C8.74667 7.56265 8.74498 7.56346 8.7425 7.56427C8.51459 7.66139 8.23828 7.78396 7.99037 7.90739C7.97867 7.91317 7.96698 7.91892 7.95528 7.9247L7.95028 7.92715C7.88433 7.96006 7.82172 7.99297 7.76245 8.02589H7.76163C7.72572 8.04565 7.6915 8.0654 7.65893 8.0843C7.55459 8.14439 7.46693 8.2028 7.40515 8.25466C7.46359 8.19706 7.52372 8.1419 7.5855 8.08927H7.58632C7.60385 8.07363 7.62054 8.0588 7.63806 8.04483C7.71906 7.97819 7.80254 7.91399 7.88933 7.85476C7.75246 7.87615 7.61802 7.90002 7.48698 7.92552C7.55211 7.75435 7.66898 7.53466 7.87767 7.31082C7.87767 7.31082 7.8785 7.30919 7.88185 7.3067C7.88432 7.30345 7.88767 7.30015 7.89019 7.29685C7.89185 7.29436 7.89437 7.29192 7.89685 7.28943C8.01541 7.166 8.1615 7.04258 8.34345 6.92656C8.41106 6.88293 8.48372 6.84098 8.56132 6.79983C8.57719 6.7916 8.59306 6.78338 8.60893 6.77515L9.15489 7.29603L9.2275 7.36516Z" fill="#244C0F"/>
<path d="M12.61 8.39536C12.61 8.39536 12.5558 7.35856 11.4004 6.77515L10.7819 7.36516C10.7819 7.36516 12.2177 8.06459 12.61 8.39536Z" fill="#244C0F"/>
<path d="M8.81849 4.13745C8.81849 4.13745 8.82101 4.13166 8.82266 4.12836C8.82266 4.12836 8.82266 4.12674 8.82432 4.12592C9.05475 3.65111 9.49049 3.32939 9.99053 3.32939C10.4906 3.32939 10.9263 3.65111 11.1559 4.12592C11.1567 4.12674 11.1575 4.12836 11.1575 4.12836C11.1592 4.13166 11.1609 4.13415 11.1617 4.13745C11.2694 4.36288 11.3304 4.62208 11.3304 4.89774C11.3304 5.17339 11.2694 5.43178 11.1617 5.65725C11.1609 5.66055 11.1592 5.66299 11.1575 5.66629C11.1575 5.66629 11.1567 5.66796 11.1559 5.66878C10.9263 6.14355 10.4897 6.46528 9.99053 6.46528C9.49132 6.46528 9.05475 6.14355 8.82432 5.66878C8.82349 5.66796 8.82266 5.66629 8.82266 5.66629C8.82101 5.66299 8.81932 5.66055 8.81849 5.65725C8.7108 5.43178 8.64988 5.17339 8.64988 4.89774C8.64988 4.62208 8.7108 4.36288 8.81849 4.13745ZM13.7345 5.89999C13.0734 4.75704 11.9356 4.39828 11.5824 4.31188C11.3646 3.55074 10.7335 3.00024 9.99053 3.00024C9.24758 3.00024 8.61649 3.55074 8.39775 4.31188C8.04466 4.39828 6.90684 4.75704 6.24653 5.89999C5.84501 6.59368 5.69893 7.43792 5.80658 8.42205C5.86419 8.39655 5.92262 8.37268 5.98275 8.35048C5.9944 8.34469 6.00692 8.34058 6.01862 8.33646C6.05536 8.32168 6.0921 8.30766 6.12884 8.29451C6.04701 7.42228 6.18223 6.67678 6.53371 6.06705C7.04875 5.17258 7.91358 4.80559 8.32762 4.67556C8.32014 4.74799 8.31597 4.82286 8.31597 4.89774C8.31597 4.94711 8.31762 4.99566 8.32097 5.04341L8.17488 5.35198L7.88853 5.95678L8.36436 6.08676L8.19158 6.43734L8.55388 6.79279L8.56136 6.80021L9.08397 7.31282L9.08645 7.31449L9.14988 7.37702H9.15075L9.1641 7.39099L9.26258 7.48729L9.38032 7.37042L9.37445 7.36468L9.27762 7.26924L8.39358 6.40356L8.52297 6.13944H8.52379L8.60145 5.98146L8.1231 5.85062L8.13979 5.81522L8.36353 5.34456C8.41197 5.57166 8.49627 5.78231 8.60979 5.96912C8.61649 5.98065 8.62314 5.99132 8.63066 6.00285C8.76675 6.21679 8.94036 6.39782 9.14153 6.53196L9.22171 6.57966L9.27679 6.61258C9.49301 6.72945 9.7351 6.79442 9.99053 6.79442C10.246 6.79442 10.4831 6.73108 10.6976 6.61669C11.1551 6.37395 11.5007 5.90329 11.6192 5.33471L11.8529 5.82842L11.8638 5.85062L11.3854 5.98146L11.5933 6.40356L10.7084 7.27086L10.6116 7.36549L10.6066 7.37042L10.7243 7.48729L10.8445 7.36879L10.9013 7.31368L11.3161 6.90718L11.3195 6.90388L11.433 6.79279L11.4381 6.78786L11.7953 6.43734L11.6225 6.08676L12.0984 5.95678L11.8128 5.35528L11.6601 5.03025C11.6634 4.98662 11.6651 4.94218 11.6651 4.89774C11.6651 4.82286 11.6609 4.74799 11.6534 4.67556C12.0674 4.80559 12.9323 5.17258 13.4474 6.06705C13.798 6.67511 13.9332 7.41816 13.8531 8.28791C13.8489 8.33814 13.8431 8.38914 13.8364 8.44099C13.8364 8.44922 13.8355 8.45745 13.8339 8.46568C13.828 8.51749 13.8205 8.57098 13.8121 8.62446C13.7963 8.73144 13.7771 8.84089 13.7546 8.95198C13.6986 9.23586 13.6218 9.53128 13.5241 9.83899C13.5241 9.83899 13.5233 9.84396 13.5217 9.84641C13.515 9.87028 13.5074 9.89334 13.5 9.91716V9.91884C13.4924 9.94185 13.4849 9.96409 13.4766 9.98711C13.4724 10.0011 13.4682 10.0143 13.4632 10.0282C13.4474 10.0752 13.4315 10.1212 13.4148 10.169C13.3839 10.2578 13.3514 10.3459 13.3171 10.4356L13.4607 10.4882L13.4808 10.4957L13.5626 10.5261L13.6294 10.5508C13.6318 10.5442 13.6344 10.5368 13.6368 10.5302C13.6394 10.5253 13.641 10.5211 13.6427 10.5162C13.6953 10.3755 13.7445 10.2381 13.7896 10.1023C13.9031 9.76331 13.9933 9.43665 14.0601 9.12229C14.0876 8.99724 14.1102 8.87462 14.1294 8.75368C14.1386 8.70182 14.1461 8.65164 14.1528 8.60145C14.1536 8.59485 14.1544 8.58825 14.1553 8.58251C14.1628 8.52572 14.1703 8.46979 14.1761 8.41464C14.2821 7.43299 14.1352 6.59201 13.7354 5.89999H13.7345ZM6.58045 10.2076C6.56458 10.1649 6.54953 10.1229 6.53453 10.0809V10.0793L6.51701 10.025C6.51197 10.0127 6.50779 9.99945 6.50449 9.98711C6.48862 9.94185 6.4744 9.89659 6.46106 9.85219C6.4594 9.85052 6.4594 9.84889 6.4594 9.84722C6.45771 9.85052 6.45688 9.85219 6.45688 9.85545C6.43436 9.93611 6.41432 10.0168 6.39762 10.0982C6.39597 10.1056 6.3951 10.113 6.39345 10.1213C6.36758 10.2504 6.34919 10.3813 6.33836 10.5154C6.34084 10.5228 6.34336 10.5294 6.34671 10.5368C6.34836 10.5417 6.35006 10.5458 6.35171 10.5508L6.43771 10.5187L6.52119 10.4882L6.54119 10.4808L6.66393 10.4356C6.63471 10.3591 6.60714 10.2825 6.58045 10.2076Z" fill="#244C0F"/>
<path d="M7.95522 7.92484L7.87756 7.311C7.87756 7.311 8.14139 6.99995 8.55461 6.7926L9.08552 7.33072L7.95522 7.92484Z" fill="url(#paint37_linear_510_41)"/>
<path d="M12.0281 7.92485L12.1058 7.31097C12.1058 7.31097 11.9063 7.03038 11.4354 6.78601L10.8978 7.33072L12.0281 7.92485Z" fill="url(#paint38_linear_510_41)"/>
<path d="M13.6434 10.5322C13.6426 10.5265 13.6426 10.5207 13.6417 10.5157C13.6326 10.4063 13.6192 10.2993 13.6 10.194C13.5958 10.1693 13.5916 10.1446 13.5866 10.1208C13.5683 10.0278 13.5466 9.93644 13.5207 9.84674C13.5199 9.84181 13.519 9.83851 13.5173 9.8344C13.4848 9.71757 13.4456 9.60318 13.4005 9.4921C13.2644 9.15061 13.0774 8.83548 12.8479 8.55404C12.7702 8.4586 12.6867 8.36645 12.5991 8.2792H12.5982C12.5982 8.2792 12.5958 8.27508 12.5932 8.27345C12.529 8.20844 12.4613 8.14673 12.3921 8.08668C12.3737 8.07104 12.3553 8.0554 12.337 8.04057C12.256 7.97393 12.1717 7.91058 12.0849 7.85131L12.084 7.8505C12.0699 7.84064 12.0565 7.83074 12.0415 7.82088C11.7009 7.59297 11.3202 7.42098 10.912 7.31564C10.9078 7.31483 10.9045 7.31401 10.9012 7.3132C10.8869 7.3099 10.8736 7.3066 10.8602 7.3033C10.8569 7.30248 10.8527 7.30167 10.8494 7.30085C10.8344 7.29674 10.8193 7.29344 10.8043 7.29095C10.7726 7.28273 10.7409 7.27617 10.7083 7.27038C10.6056 7.24981 10.5021 7.23417 10.3961 7.22268H10.3952C10.2626 7.20785 10.1273 7.20044 9.99038 7.20044C9.83929 7.20044 9.68986 7.20948 9.54377 7.2268H9.54212C9.45281 7.23828 9.36429 7.2523 9.27751 7.26875C9.25912 7.27287 9.23994 7.27617 9.22155 7.28028C9.19903 7.28521 9.17734 7.29014 9.15477 7.29588C9.13142 7.30085 9.10803 7.30578 9.08464 7.31153H9.08381C9.07964 7.31234 9.07547 7.31401 9.07047 7.31483C8.66307 7.41931 8.28242 7.5913 7.94186 7.8184C7.92429 7.82911 7.90677 7.84145 7.88925 7.8538C7.80242 7.91303 7.71894 7.97723 7.63799 8.04387C7.62047 8.05788 7.60377 8.07267 7.58621 8.08831H7.58538C7.5236 8.14098 7.46351 8.1961 7.40508 8.2537C7.39508 8.2636 7.38503 8.27345 7.37586 8.28331H7.37503C7.28655 8.3722 7.20221 8.46601 7.12377 8.56394H7.1229C6.89838 8.84204 6.71386 9.15473 6.57947 9.49128C6.53273 9.60648 6.49264 9.72417 6.45925 9.84511C6.45925 9.84511 6.45677 9.85085 6.45677 9.85415C6.43421 9.93481 6.41421 10.0154 6.39751 10.0969C6.39581 10.1043 6.39499 10.1117 6.39334 10.12C6.36742 10.2491 6.34907 10.38 6.33821 10.5141C6.33738 10.5232 6.33655 10.5314 6.33655 10.5396C6.32903 10.6293 6.32568 10.7206 6.32568 10.812C6.32568 11.1395 6.36994 11.4571 6.45342 11.7591C6.45342 11.7624 6.45508 11.7665 6.45677 11.7698C6.46012 11.7829 6.46342 11.7953 6.4676 11.8084C6.46847 11.8126 6.47012 11.8167 6.47177 11.8208C6.47512 11.8348 6.47929 11.8488 6.48429 11.8619C6.49351 11.894 6.50351 11.9261 6.51438 11.9574H6.51521C6.54777 12.0553 6.58534 12.1516 6.62621 12.2454C6.63625 12.2668 6.64542 12.289 6.65542 12.3096C6.65542 12.3096 6.65629 12.3096 6.65629 12.3112C6.76394 12.5416 6.89421 12.7588 7.04612 12.9596L7.04694 12.9604C7.09786 13.0288 7.15129 13.0954 7.20808 13.1596C7.22142 13.1752 7.23477 13.1908 7.24981 13.2065C7.26316 13.2221 7.27734 13.2378 7.29155 13.2526C7.30825 13.2707 7.32412 13.288 7.34081 13.3052V13.306C7.34916 13.3143 7.35664 13.3225 7.36499 13.3307H7.36586C7.65386 13.622 7.99107 13.8656 8.36342 14.0483C8.39764 14.0647 8.43186 14.0812 8.46608 14.0968C8.5746 14.1454 8.68647 14.1898 8.80081 14.2285C8.81421 14.2334 8.82755 14.2375 8.84173 14.2417C8.84673 14.2441 8.8509 14.2458 8.85677 14.2466H8.8576C8.93942 14.2737 9.0229 14.2976 9.10803 14.3182C9.22655 14.347 9.3476 14.37 9.47034 14.3873C9.63977 14.4112 9.8126 14.4235 9.98873 14.4235C10.1649 14.4235 10.3535 14.4103 10.5305 14.384H10.5313C10.6549 14.3659 10.7759 14.342 10.8945 14.3124C10.9796 14.2902 11.0639 14.2663 11.1466 14.2384H11.1474C11.1474 14.2384 11.1558 14.2359 11.1599 14.2342C11.1833 14.2268 11.2067 14.2186 11.2292 14.2096L11.2317 14.2087C11.3319 14.1742 11.4287 14.1347 11.5239 14.0911C11.5581 14.0754 11.5923 14.059 11.6257 14.0425C11.9797 13.8673 12.3011 13.6377 12.5782 13.3645C12.6024 13.3406 12.6266 13.3159 12.6509 13.2913C12.6517 13.2904 12.6525 13.2888 12.6525 13.2888C12.67 13.2715 12.6859 13.2534 12.7018 13.2353C12.7151 13.2221 12.7276 13.2081 12.7393 13.1941C12.7552 13.1777 12.7702 13.1604 12.7844 13.1431C12.8395 13.0798 12.8921 13.0139 12.9422 12.9465V12.9457C13.0607 12.7868 13.1659 12.619 13.2569 12.4404C13.2577 12.4396 13.2577 12.4379 13.2586 12.4371C13.2594 12.4371 13.2594 12.4363 13.2594 12.4363C13.2919 12.3729 13.3229 12.3088 13.3512 12.2437C13.3921 12.1524 13.428 12.0586 13.4606 11.9632C13.4723 11.9294 13.4839 11.8948 13.494 11.8603C13.4982 11.8496 13.5015 11.8381 13.504 11.8274C13.5057 11.8225 13.5073 11.8175 13.5082 11.8126C13.5123 11.8002 13.5157 11.7887 13.519 11.7763C13.524 11.7583 13.529 11.7402 13.534 11.7229C13.6109 11.4316 13.6518 11.1263 13.6518 10.812C13.6518 10.7173 13.6484 10.6235 13.6409 10.5314L13.6434 10.5322ZM9.99038 14.0952C8.15386 14.0952 6.6596 12.6231 6.6596 10.8128C6.6596 10.7791 6.66047 10.7453 6.66129 10.7116C6.66212 10.6861 6.66294 10.6606 6.66464 10.6351C6.66464 10.6309 6.66464 10.626 6.66547 10.6219C6.66629 10.6013 6.66794 10.5808 6.66964 10.5602C6.67212 10.5207 6.67629 10.4812 6.68134 10.4425C6.68381 10.4195 6.68634 10.3972 6.68968 10.3742C6.69299 10.3454 6.69716 10.3166 6.70221 10.2886C6.70721 10.259 6.71221 10.2286 6.71803 10.1989C6.7239 10.1693 6.72973 10.1405 6.73642 10.1109C6.74225 10.0829 6.74894 10.0541 6.75647 10.0261C6.75977 10.013 6.76312 9.99897 6.76647 9.98581C6.77981 9.93644 6.79316 9.88707 6.80903 9.83937C6.81738 9.81301 6.82573 9.7867 6.8349 9.7612C6.85077 9.71345 6.86829 9.66657 6.88668 9.62045C6.90838 9.56697 6.9309 9.51434 6.95429 9.4633C6.97351 9.42215 6.99351 9.38101 7.01438 9.33987C7.03025 9.30944 7.04612 9.27897 7.06281 9.24935C7.07699 9.22223 7.09203 9.19587 7.1079 9.17037C7.11708 9.15391 7.12708 9.13745 7.13712 9.12181C7.15212 9.0955 7.16881 9.07 7.18551 9.04445C7.2139 9.00005 7.24394 8.95642 7.27486 8.91365C7.29573 8.88485 7.31742 8.85605 7.33912 8.82807C7.35664 8.80501 7.37503 8.782 7.39338 8.75975C7.41425 8.73344 7.43594 8.70794 7.45768 8.68325C7.48021 8.6569 7.50273 8.6314 7.52612 8.60671C7.54864 8.58203 7.57121 8.55815 7.59455 8.53514C7.6196 8.50797 7.64634 8.48247 7.67303 8.45697C7.6889 8.44214 7.70477 8.42817 7.71977 8.41334C7.75986 8.37631 7.80077 8.3401 7.84251 8.30555C7.87925 8.27508 7.91594 8.24547 7.95351 8.21667C7.96603 8.20681 7.97855 8.19777 7.99108 8.18868C8.03616 8.15495 8.0829 8.12204 8.12968 8.0908C8.16638 8.06611 8.20394 8.04224 8.24151 8.01918C8.27742 7.99698 8.31416 7.9756 8.35173 7.95503C8.3876 7.93527 8.42351 7.91551 8.46025 7.89743C8.47612 7.88834 8.49281 7.88011 8.50951 7.87274C8.53203 7.86121 8.55455 7.8505 8.57712 7.84064C8.60216 7.8283 8.62803 7.81677 8.6539 7.80605C8.68229 7.79371 8.70986 7.78137 8.73821 7.7707C8.75994 7.76165 8.78247 7.75257 8.80499 7.74434C8.83338 7.73367 8.86177 7.72377 8.89016 7.71391C8.9319 7.69908 8.97447 7.68511 9.01703 7.67277C9.0379 7.66535 9.05877 7.65961 9.07964 7.65468C9.13225 7.63985 9.18568 7.62588 9.23907 7.61354C9.28751 7.60283 9.33677 7.59297 9.38686 7.58388C9.40273 7.58063 9.41855 7.57814 9.43442 7.57565C9.46534 7.57073 9.49621 7.5658 9.52708 7.56168C9.56381 7.55594 9.60138 7.55183 9.63894 7.54853C9.64729 7.54685 9.65564 7.54604 9.66399 7.54604C9.70408 7.54111 9.74412 7.53781 9.78503 7.53618C9.81342 7.53451 9.84099 7.53288 9.86934 7.53207C9.90942 7.5304 9.95034 7.52958 9.99038 7.52958C11.8269 7.52958 13.3203 9.0025 13.3203 10.8128C13.3203 12.6231 11.8269 14.0952 9.99038 14.0952Z" fill="#737373"/>
<path d="M13.3213 10.8131C13.3213 12.6234 11.8278 14.0955 9.9913 14.0955C8.15478 14.0955 6.66052 12.6234 6.66052 10.8131C6.66052 9.00282 8.15478 7.52991 9.9913 7.52991C11.8278 7.52991 13.3213 9.00282 13.3213 10.8131Z" fill="#EFF1EC"/>
<path d="M11.2335 8.46704H9.00789L8.83763 10.9545C8.83763 10.9545 9.24163 10.7587 9.67406 10.7587C10.1065 10.7587 10.4679 10.8632 10.4679 11.5832C10.4679 12.3032 9.4545 12.6175 8.6815 12.3098L8.62476 12.8825C8.62476 12.8825 11.3745 13.4132 11.3745 11.3734C11.3745 9.88565 9.72997 10.144 9.72997 10.144L9.82932 9.20761H11.2184L11.2326 8.46704H11.2335Z" fill="#E4A545"/>
</g>
</g>
<defs>
<radialGradient id="paint0_radial_510_41" cx="0" cy="0" r="1" gradientUnits="userSpaceOnUse" gradientTransform="translate(5.68298 10.2528) scale(1.58191 1.55931)">
<stop stop-color="#E3F352"/>
<stop offset="0.21" stop-color="#DDE248"/>
<stop offset="0.59" stop-color="#D5CB3B"/>
<stop offset="0.83" stop-color="#D2C337"/>
</radialGradient>
<radialGradient id="paint1_radial_510_41" cx="0" cy="0" r="1" gradientUnits="userSpaceOnUse" gradientTransform="translate(4.89158 9.55889) scale(5.89691 5.81267)">
<stop stop-color="#E3F352"/>
<stop offset="0.11" stop-color="#DDE248"/>
<stop offset="0.32" stop-color="#D5CB3B"/>
<stop offset="0.45" stop-color="#D2C337"/>
</radialGradient>
<radialGradient id="paint2_radial_510_41" cx="0" cy="0" r="1" gradientUnits="userSpaceOnUse" gradientTransform="translate(3.79054 11.7636) scale(4.12049 4.06162)">
<stop stop-color="#E3F352"/>
<stop offset="0.21" stop-color="#DDE248"/>
<stop offset="0.59" stop-color="#D5CB3B"/>
<stop offset="0.83" stop-color="#D2C337"/>
</radialGradient>
<radialGradient id="paint3_radial_510_41" cx="0" cy="0" r="1" gradientUnits="userSpaceOnUse" gradientTransform="translate(3.53756 11.6909) scale(3.68139 3.6288)">
<stop stop-color="#E3F352"/>
<stop offset="0.11" stop-color="#DDE248"/>
<stop offset="0.32" stop-color="#D5CB3B"/>
<stop offset="0.45" stop-color="#D2C337"/>
</radialGradient>
<radialGradient id="paint4_radial_510_41" cx="0" cy="0" r="1" gradientUnits="userSpaceOnUse" gradientTransform="translate(7.1289 8.4599) scale(0.914921 0.901852)">
<stop stop-color="#E3F352"/>
<stop offset="0.11" stop-color="#DDE248"/>
<stop offset="0.32" stop-color="#D5CB3B"/>
<stop offset="0.45" stop-color="#D2C337"/>
</radialGradient>
<radialGradient id="paint5_radial_510_41" cx="0" cy="0" r="1" gradientUnits="userSpaceOnUse" gradientTransform="translate(6.85331 14.6221) scale(3.55033 3.49961)">
<stop stop-color="#E3F352"/>
<stop offset="0.11" stop-color="#DDE248"/>
<stop offset="0.32" stop-color="#D5CB3B"/>
<stop offset="0.45" stop-color="#D2C337"/>
</radialGradient>
<linearGradient id="paint6_linear_510_41" x1="7.73133" y1="12.8601" x2="5.55997" y2="15.6726" gradientUnits="userSpaceOnUse">
<stop stop-color="#E3F352"/>
<stop offset="0.11" stop-color="#DEED4F"/>
<stop offset="0.24" stop-color="#D3DD48"/>
<stop offset="0.39" stop-color="#BFC33D"/>
<stop offset="0.55" stop-color="#A49F2D"/>
<stop offset="0.67" stop-color="#8E8120"/>
</linearGradient>
<linearGradient id="paint7_linear_510_41" x1="7.20392" y1="11.9224" x2="4.69036" y2="11.9038" gradientUnits="userSpaceOnUse">
<stop stop-color="#E3F352"/>
<stop offset="0.14" stop-color="#DEED4F"/>
<stop offset="0.33" stop-color="#D3DD48"/>
<stop offset="0.53" stop-color="#BFC33D"/>
<stop offset="0.75" stop-color="#A49F2D"/>
<stop offset="0.9" stop-color="#8E8120"/>
</linearGradient>
<radialGradient id="paint8_radial_510_41" cx="0" cy="0" r="1" gradientUnits="userSpaceOnUse" gradientTransform="translate(4.02727 13.1688) scale(2.84995 2.80923)">
<stop stop-color="#E5E52C"/>
<stop offset="0.21" stop-color="#C5C11D"/>
<stop offset="0.66" stop-color="#877A00"/>
</radialGradient>
<radialGradient id="paint9_radial_510_41" cx="0" cy="0" r="1" gradientUnits="userSpaceOnUse" gradientTransform="translate(5.67676 15.2625) rotate(60.3972) scale(8.54539 8.60922)">
<stop stop-color="#E3F352"/>
<stop offset="0.11" stop-color="#DDE248"/>
<stop offset="0.32" stop-color="#D5CB3B"/>
<stop offset="0.45" stop-color="#D2C337"/>
</radialGradient>
<radialGradient id="paint10_radial_510_41" cx="0" cy="0" r="1" gradientUnits="userSpaceOnUse" gradientTransform="translate(6.93393 11.7761) rotate(-135.852) scale(3.10518 2.91792)">
<stop stop-color="#E3F352"/>
<stop offset="0.14" stop-color="#DEED4F"/>
<stop offset="0.33" stop-color="#D3DD48"/>
<stop offset="0.53" stop-color="#BFC33D"/>
<stop offset="0.75" stop-color="#A49F2D"/>
<stop offset="0.9" stop-color="#8E8120"/>
</radialGradient>
<radialGradient id="paint11_radial_510_41" cx="0" cy="0" r="1" gradientUnits="userSpaceOnUse" gradientTransform="translate(6.90007 11.8099) scale(1.94254 1.91479)">
<stop stop-color="#E3F352"/>
<stop offset="0.14" stop-color="#DEED4F"/>
<stop offset="0.33" stop-color="#D3DD48"/>
<stop offset="0.53" stop-color="#BFC33D"/>
<stop offset="0.75" stop-color="#A49F2D"/>
<stop offset="0.9" stop-color="#8E8120"/>
</radialGradient>
<radialGradient id="paint12_radial_510_41" cx="0" cy="0" r="1" gradientUnits="userSpaceOnUse" gradientTransform="translate(14.7982 11.4342) rotate(-60.3972) scale(6.13841 6.18427)">
<stop stop-color="#1DB1EF"/>
<stop offset="0.29" stop-color="#189CEC"/>
<stop offset="0.49" stop-color="#1794EB"/>
</radialGradient>
<radialGradient id="paint13_radial_510_41" cx="0" cy="0" r="1" gradientUnits="userSpaceOnUse" gradientTransform="translate(16.0875 12.1571) rotate(-60.3972) scale(8.54539 8.60922)">
<stop stop-color="#1DD1EF"/>
<stop offset="0.18" stop-color="#1AB3ED"/>
<stop offset="0.37" stop-color="#179CEB"/>
<stop offset="0.49" stop-color="#1794EB"/>
</radialGradient>
<radialGradient id="paint14_radial_510_41" cx="0" cy="0" r="1" gradientUnits="userSpaceOnUse" gradientTransform="translate(13.0502 14.5099) rotate(119.603) scale(3.49527 3.52138)">
<stop stop-color="#1DB1EF"/>
<stop offset="0.29" stop-color="#189CEC"/>
<stop offset="0.49" stop-color="#1794EB"/>
</radialGradient>
<linearGradient id="paint15_linear_510_41" x1="12.2684" y1="12.8592" x2="14.44" y2="15.6725" gradientUnits="userSpaceOnUse">
<stop stop-color="#67ACE1"/>
<stop offset="0.17" stop-color="#5494C9"/>
<stop offset="0.63" stop-color="#23598E"/>
<stop offset="0.85" stop-color="#114277"/>
</linearGradient>
<linearGradient id="paint16_linear_510_41" x1="13.4272" y1="12.1748" x2="15.8652" y2="11.8361" gradientUnits="userSpaceOnUse">
<stop stop-color="#67ACE1"/>
<stop offset="0.17" stop-color="#5494C9"/>
<stop offset="0.63" stop-color="#23598E"/>
<stop offset="0.85" stop-color="#114277"/>
</linearGradient>
<radialGradient id="paint17_radial_510_41" cx="0" cy="0" r="1" gradientUnits="userSpaceOnUse" gradientTransform="translate(15.2472 13.2218) scale(2.43673 2.40192)">
<stop stop-color="#67ACE1"/>
<stop offset="0.17" stop-color="#5494C9"/>
<stop offset="0.63" stop-color="#23598E"/>
<stop offset="0.85" stop-color="#114277"/>
</radialGradient>
<radialGradient id="paint18_radial_510_41" cx="0" cy="0" r="1" gradientUnits="userSpaceOnUse" gradientTransform="translate(14.3231 15.2624) rotate(119.603) scale(8.54539 8.60922)">
<stop stop-color="#1DD1EF"/>
<stop offset="0.18" stop-color="#1AB3ED"/>
<stop offset="0.37" stop-color="#179CEB"/>
<stop offset="0.49" stop-color="#1794EB"/>
</radialGradient>
<radialGradient id="paint19_radial_510_41" cx="0" cy="0" r="1" gradientUnits="userSpaceOnUse" gradientTransform="translate(11.8053 6.4066) scale(6.20578 6.11713)">
<stop stop-color="#9FCB7E"/>
<stop offset="0.1" stop-color="#8AB66F"/>
<stop offset="0.32" stop-color="#659154"/>
<stop offset="0.49" stop-color="#4D7943"/>
<stop offset="0.6" stop-color="#45713D"/>
</radialGradient>
<radialGradient id="paint20_radial_510_41" cx="0" cy="0" r="1" gradientUnits="userSpaceOnUse" gradientTransform="translate(11.7953 4.94398) scale(8.63917 8.51576)">
<stop stop-color="#BFE0A4"/>
<stop offset="0.21" stop-color="#8BB078"/>
<stop offset="0.38" stop-color="#658D57"/>
<stop offset="0.52" stop-color="#4D7844"/>
<stop offset="0.6" stop-color="#45713D"/>
</radialGradient>
<radialGradient id="paint21_radial_510_41" cx="0" cy="0" r="1" gradientUnits="userSpaceOnUse" gradientTransform="translate(7.03862 6.4066) scale(6.20661 6.11794)">
<stop stop-color="#9FCB7E"/>
<stop offset="0.1" stop-color="#8AB66F"/>
<stop offset="0.32" stop-color="#659154"/>
<stop offset="0.49" stop-color="#4D7943"/>
<stop offset="0.6" stop-color="#45713D"/>
</radialGradient>
<radialGradient id="paint22_radial_510_41" cx="0" cy="0" r="1" gradientUnits="userSpaceOnUse" gradientTransform="translate(9.42454 7.31918) scale(2.82574 2.78537)">
<stop stop-color="#9FCB7E"/>
<stop offset="0.11" stop-color="#8AB66F"/>
<stop offset="0.35" stop-color="#659154"/>
<stop offset="0.54" stop-color="#4D7943"/>
<stop offset="0.65" stop-color="#45713D"/>
</radialGradient>
<radialGradient id="paint23_radial_510_41" cx="0" cy="0" r="1" gradientUnits="userSpaceOnUse" gradientTransform="translate(10.513 7.31918) rotate(180) scale(2.82574 2.78537)">
<stop stop-color="#9FCB7E"/>
<stop offset="0.11" stop-color="#8AB66F"/>
<stop offset="0.35" stop-color="#659154"/>
<stop offset="0.54" stop-color="#4D7943"/>
<stop offset="0.65" stop-color="#45713D"/>
</radialGradient>
<radialGradient id="paint24_radial_510_41" cx="0" cy="0" r="1" gradientUnits="userSpaceOnUse" gradientTransform="translate(9.74929 4.35195) scale(2.39249 2.35831)">
<stop stop-color="#9FCB7E"/>
<stop offset="0.11" stop-color="#8AB66F"/>
<stop offset="0.35" stop-color="#659154"/>
<stop offset="0.54" stop-color="#4D7943"/>
<stop offset="0.65" stop-color="#45713D"/>
</radialGradient>
<radialGradient id="paint25_radial_510_41" cx="0" cy="0" r="1" gradientUnits="userSpaceOnUse" gradientTransform="translate(6.41335 9.54506) scale(1.0585 1.04338)">
<stop stop-color="#BFE0A4"/>
<stop offset="0.21" stop-color="#8BB078"/>
<stop offset="0.38" stop-color="#658D57"/>
<stop offset="0.52" stop-color="#4D7844"/>
<stop offset="0.6" stop-color="#45713D"/>
</radialGradient>
<radialGradient id="paint26_radial_510_41" cx="0" cy="0" r="1" gradientUnits="userSpaceOnUse" gradientTransform="translate(6.1897 4.80902) scale(6.29843 6.20846)">
<stop stop-color="#BFE0A4"/>
<stop offset="0.21" stop-color="#8BB078"/>
<stop offset="0.38" stop-color="#658D57"/>
<stop offset="0.52" stop-color="#4D7844"/>
<stop offset="0.6" stop-color="#45713D"/>
</radialGradient>
<linearGradient id="paint27_linear_510_41" x1="8.81169" y1="8.1651" x2="7.66567" y2="5.99057" gradientUnits="userSpaceOnUse">
<stop stop-color="#9FCB7E"/>
<stop offset="0.1" stop-color="#8AB66F"/>
<stop offset="0.32" stop-color="#659154"/>
<stop offset="0.49" stop-color="#4D7943"/>
<stop offset="0.6" stop-color="#45713D"/>
</linearGradient>
<linearGradient id="paint28_linear_510_41" x1="11.2902" y1="8.34121" x2="11.8791" y2="5.84082" gradientUnits="userSpaceOnUse">
<stop stop-color="#9FCB7E"/>
<stop offset="0.1" stop-color="#8AB66F"/>
<stop offset="0.32" stop-color="#659154"/>
<stop offset="0.49" stop-color="#4D7943"/>
<stop offset="0.6" stop-color="#45713D"/>
</linearGradient>
<radialGradient id="paint29_radial_510_41" cx="0" cy="0" r="1" gradientUnits="userSpaceOnUse" gradientTransform="translate(11.8053 6.4066) scale(6.20578 6.11713)">
<stop stop-color="#9FCB7E"/>
<stop offset="0.1" stop-color="#8AB66F"/>
<stop offset="0.32" stop-color="#659154"/>
<stop offset="0.49" stop-color="#4D7943"/>
<stop offset="0.6" stop-color="#45713D"/>
</radialGradient>
<radialGradient id="paint30_radial_510_41" cx="0" cy="0" r="1" gradientUnits="userSpaceOnUse" gradientTransform="translate(11.7953 4.94398) scale(8.63917 8.51576)">
<stop stop-color="#BFE0A4"/>
<stop offset="0.21" stop-color="#8BB078"/>
<stop offset="0.38" stop-color="#658D57"/>
<stop offset="0.52" stop-color="#4D7844"/>
<stop offset="0.6" stop-color="#45713D"/>
</radialGradient>
<radialGradient id="paint31_radial_510_41" cx="0" cy="0" r="1" gradientUnits="userSpaceOnUse" gradientTransform="translate(7.03862 6.4066) scale(6.20661 6.11794)">
<stop stop-color="#9FCB7E"/>
<stop offset="0.1" stop-color="#8AB66F"/>
<stop offset="0.32" stop-color="#659154"/>
<stop offset="0.49" stop-color="#4D7943"/>
<stop offset="0.6" stop-color="#45713D"/>
</radialGradient>
<radialGradient id="paint32_radial_510_41" cx="0" cy="0" r="1" gradientUnits="userSpaceOnUse" gradientTransform="translate(9.42454 7.31918) scale(2.82574 2.78537)">
<stop stop-color="#9FCB7E"/>
<stop offset="0.11" stop-color="#8AB66F"/>
<stop offset="0.35" stop-color="#659154"/>
<stop offset="0.54" stop-color="#4D7943"/>
<stop offset="0.65" stop-color="#45713D"/>
</radialGradient>
<radialGradient id="paint33_radial_510_41" cx="0" cy="0" r="1" gradientUnits="userSpaceOnUse" gradientTransform="translate(10.513 7.31918) rotate(180) scale(2.82574 2.78537)">
<stop stop-color="#9FCB7E"/>
<stop offset="0.11" stop-color="#8AB66F"/>
<stop offset="0.35" stop-color="#659154"/>
<stop offset="0.54" stop-color="#4D7943"/>
<stop offset="0.65" stop-color="#45713D"/>
</radialGradient>
<radialGradient id="paint34_radial_510_41" cx="0" cy="0" r="1" gradientUnits="userSpaceOnUse" gradientTransform="translate(9.74929 4.35195) scale(2.39249 2.35831)">
<stop stop-color="#9FCB7E"/>
<stop offset="0.11" stop-color="#8AB66F"/>
<stop offset="0.35" stop-color="#659154"/>
<stop offset="0.54" stop-color="#4D7943"/>
<stop offset="0.65" stop-color="#45713D"/>
</radialGradient>
<radialGradient id="paint35_radial_510_41" cx="0" cy="0" r="1" gradientUnits="userSpaceOnUse" gradientTransform="translate(6.41335 9.54506) scale(1.0585 1.04338)">
<stop stop-color="#BFE0A4"/>
<stop offset="0.21" stop-color="#8BB078"/>
<stop offset="0.38" stop-color="#658D57"/>
<stop offset="0.52" stop-color="#4D7844"/>
<stop offset="0.6" stop-color="#45713D"/>
</radialGradient>
<radialGradient id="paint36_radial_510_41" cx="0" cy="0" r="1" gradientUnits="userSpaceOnUse" gradientTransform="translate(7.87761 5.32249) scale(6.92452 6.8256)">
<stop stop-color="#BFE0A4"/>
<stop offset="0.21" stop-color="#8BB078"/>
<stop offset="0.38" stop-color="#658D57"/>
<stop offset="0.52" stop-color="#4D7844"/>
<stop offset="0.6" stop-color="#45713D"/>
</radialGradient>
<linearGradient id="paint37_linear_510_41" x1="8.81169" y1="8.1651" x2="7.66567" y2="5.99057" gradientUnits="userSpaceOnUse">
<stop stop-color="#9FCB7E"/>
<stop offset="0.1" stop-color="#8AB66F"/>
<stop offset="0.32" stop-color="#659154"/>
<stop offset="0.49" stop-color="#4D7943"/>
<stop offset="0.6" stop-color="#45713D"/>
</linearGradient>
<linearGradient id="paint38_linear_510_41" x1="11.2902" y1="8.34121" x2="11.8791" y2="5.84082" gradientUnits="userSpaceOnUse">
<stop stop-color="#9FCB7E"/>
<stop offset="0.1" stop-color="#8AB66F"/>
<stop offset="0.32" stop-color="#659154"/>
<stop offset="0.49" stop-color="#4D7943"/>
<stop offset="0.6" stop-color="#45713D"/>
</linearGradient>
<clipPath id="clip0_510_41">
<rect width="20" height="20" fill="white"/>
</clipPath>
</defs>
</svg>
