<svg width="20" height="20" viewBox="0 0 20 20" fill="none" xmlns="http://www.w3.org/2000/svg">
<rect width="20" height="20" rx="10" fill="black"/>
<path fill-rule="evenodd" clip-rule="evenodd" d="M10 3C6.13614 3 3 6.13614 3 10C3 13.8639 6.13614 17 10 17C13.8639 17 17 13.8639 17 10C17 6.13614 13.8639 3 10 3ZM14.0025 11.3861V14.6262C15.302 13.5 16.1163 11.854 16.1163 10.0173C16.1163 6.63863 13.3787 3.90099 10 3.90099C6.6213 3.90099 3.88366 6.63863 3.88366 10.0173C3.88366 11.854 4.69802 13.5 5.98021 14.6262V11.3861L8.1807 11.1262V15.8564C8.36043 15.9163 8.56606 15.9633 8.764 16.0085C8.79505 16.0156 8.8259 16.0227 8.85642 16.0297V10.3465L5.98021 10.8144V9.04702L10 7.81684L14.0198 9.04702V10.8144L11.1436 10.3465V16.0297C11.3688 15.9777 11.5941 15.9258 11.8193 15.8564V11.1262L14.0025 11.3861ZM10 5.47772L12.7376 6.70793V5.89358L10 4.50743L7.26238 5.89358V6.70793L10 5.47772ZM5.98021 7.71288V8.5792L10 7.21039L14.0198 8.5792V7.71288L10 6.04951L5.98021 7.71288Z" fill="white"/>
</svg>
