<svg
                        width="13"
                        height="10"
                        viewBox="0 0 13 10"
                        fill="#030B07"
                        xmlns="http://www.w3.org/2000/svg"
                    >
                        <path
                            d="M6.14468 2.56604L6.49525 2.91077L6.84582 2.56604L8.16046 1.27331C9.12479 0.325053 10.6237 0.262604 11.6127 1.08421L11.6806 1.14486C12.1939 1.60336 12.4831 2.22716 12.4993 2.90508C12.5154 3.5832 12.2566 4.21911 11.7671 4.70044L7.1626 9.22819L7.16119 9.2296C6.98589 9.40335 6.75146 9.5 6.49525 9.5C6.2402 9.5 6.00678 9.4041 5.8279 9.2282L1.27105 4.74729C0.288258 3.78087 0.246338 2.27444 1.13793 1.30974C1.60649 0.804676 2.24476 0.51696 2.94187 0.500895L2.94321 0.500861C3.63432 0.48307 4.28755 0.741811 4.78056 1.22466C4.78067 1.22476 4.78078 1.22487 4.78088 1.22497L6.14468 2.56604Z"
                            stroke="#030B07"
                        />
                    </svg>