<svg width="20" height="20" viewBox="0 0 20 20" fill="none" xmlns="http://www.w3.org/2000/svg">
<rect width="20" height="20" rx="10" fill="black"/>
<path d="M14.7968 10.2483C14.5003 10.2494 14.2028 10.2354 13.9084 10.2527C13.6876 10.2646 13.5816 10.1769 13.5275 9.97132C13.3901 9.46054 13.1358 9.0147 12.7754 8.62404C11.664 7.42069 9.5809 7.37525 8.40678 8.51583C7.95985 8.94977 7.6655 9.45188 7.49669 10.0449C7.47396 10.1261 7.35384 10.2332 7.27484 10.2375C6.85389 10.2559 6.43185 10.244 6.00981 10.2473C5.79015 10.2494 5.77283 10.112 5.77283 9.9421C5.77499 8.92705 5.77391 7.912 5.77391 6.89694C5.77391 5.88188 5.77283 4.90254 5.77499 3.9048C5.77499 3.58449 5.85399 3.53471 6.14076 3.67214C6.96752 4.07037 7.43393 4.69585 7.3993 5.64706C7.38631 5.99659 7.3928 6.34721 7.40146 6.69783C7.40903 7.0203 7.48803 7.05602 7.78021 6.90885C8.18601 6.70323 8.581 6.4565 9.00953 6.31691C10.517 5.82886 11.953 6.01716 13.2656 6.91642C14.2774 7.61007 14.8953 8.58726 15.1799 9.77653C15.2751 10.1769 15.2156 10.2473 14.7968 10.2483Z" fill="#0FA4FA"/>
<path d="M15.2633 11.4571C15.0197 12.9526 14.245 14.0997 12.9356 14.8301C11.2225 15.7846 9.50732 15.7045 7.8408 14.6645C7.76398 14.618 7.69148 14.5661 7.61464 14.5185C7.60166 14.5098 7.58109 14.513 7.48479 14.4979C7.48479 14.6948 7.48695 14.8691 7.48479 15.0444C7.48046 15.342 7.39171 15.4178 7.12984 15.3073C6.5141 15.0487 6.05202 14.6191 5.85507 13.9709C5.76417 13.669 5.74686 13.3378 5.73603 13.0186C5.71764 12.4797 5.73603 11.9408 5.72845 11.4019C5.7263 11.2158 5.79015 11.1487 5.97952 11.1551C6.41021 11.1692 6.8409 11.1703 7.2716 11.1671C7.4296 11.166 7.5021 11.2158 7.54755 11.3813C7.93171 12.7632 8.97057 13.6441 10.3135 13.7469C11.7625 13.8562 13.0925 12.9169 13.4593 11.5079C13.5275 11.2471 13.6411 11.1411 13.9203 11.1616C14.2774 11.1887 14.6378 11.1768 14.9971 11.166C15.2134 11.1595 15.3033 11.2103 15.2633 11.4571Z" fill="white"/>
</svg>
