<svg width="20" height="20" viewBox="0 0 20 20" fill="none" xmlns="http://www.w3.org/2000/svg">
<rect width="20" height="20" rx="10" fill="black"/>
<mask id="mask0_510_218" style="mask-type:luminance" maskUnits="userSpaceOnUse" x="3" y="5" width="14" height="9">
<path d="M17 5H3V13.8338H17V5Z" fill="white"/>
</mask>
<g mask="url(#mask0_510_218)">
<path d="M10.3706 13.7972C10.489 13.7725 10.6041 13.7369 10.7149 13.6896C10.8257 13.6433 10.93 13.5863 11.0236 13.5218C11.1076 13.4669 11.185 13.4013 11.2593 13.3324C12.1361 12.8279 12.8601 12.8009 15.1054 12.7924C15.3066 12.9903 15.582 13.113 15.8865 13.113C16.5008 13.113 17 12.6137 17 11.9984C17 11.7004 16.8838 11.4196 16.6729 11.2098C16.4621 11 16.1824 10.8849 15.8865 10.8859C15.582 10.8859 15.3066 11.0086 15.1054 11.2066C14.5298 11.2012 14.0543 11.1926 13.652 11.1743C14.1436 10.3835 14.4685 9.60677 14.6191 8.85258C14.7407 8.79773 14.8547 8.72242 14.9527 8.62557C15.3701 8.20602 15.3722 7.47445 14.9505 7.05056C14.7397 6.84078 14.4599 6.72565 14.163 6.72456C13.865 6.72456 13.5853 6.84078 13.3765 7.04946C13.2786 7.14736 13.2044 7.26033 13.1485 7.383C12.3932 7.53359 11.6154 7.85959 10.8225 8.35231C10.8053 7.9478 10.7977 7.47011 10.7945 6.89457C10.9925 6.69338 11.1151 6.41903 11.1151 6.11456C11.1151 5.50027 10.6148 5 9.99945 5C9.38406 5 8.88594 5.50027 8.88594 6.11456C8.88594 6.40934 9.00001 6.68585 9.20655 6.89562C9.20334 7.4723 9.1958 7.94995 9.17858 8.35556C8.38353 7.85959 7.60141 7.53359 6.84183 7.383C6.78913 7.26143 6.71811 7.14736 6.62131 7.04946C6.18773 6.61807 5.48198 6.61807 5.04734 7.05161C4.83755 7.26358 4.72136 7.54328 4.72136 7.84131C4.72136 8.13929 4.83647 8.41794 5.0452 8.62772C5.14309 8.72566 5.25712 8.79988 5.37979 8.85473C5.53038 9.60997 5.85638 10.3878 6.3491 11.1807C5.94568 11.1969 5.47014 11.2023 4.89564 11.2066C4.69446 11.0086 4.42012 10.8859 4.11673 10.8859C3.81334 10.8859 3.54007 11 3.32813 11.2098C3.11727 11.4206 3.00107 11.7004 3 11.9984C3 12.6137 3.50027 13.113 4.11565 13.113C4.41904 13.113 4.69446 12.9903 4.89457 12.7924C7.14845 12.8074 7.88971 12.8612 8.80636 13.3916C8.86016 13.4368 8.915 13.4809 8.97204 13.5196C9.06884 13.5853 9.17428 13.6433 9.28401 13.6885C9.39484 13.7358 9.51102 13.7725 9.62938 13.7972C9.74771 13.8209 9.87252 13.8338 9.99945 13.8338C10.1264 13.8338 10.2512 13.8209 10.3695 13.7972H10.3706ZM5.23025 11.9984C5.23025 11.9489 5.22161 11.9016 5.21517 11.8531C6.67725 11.8391 7.51316 11.794 8.21895 11.5702C8.21465 11.5895 8.20816 11.6089 8.20387 11.6294C8.17914 11.7488 8.16621 11.8725 8.16621 11.9984C8.16621 12.1242 8.17914 12.249 8.20387 12.3696C8.20711 12.3867 8.21246 12.4029 8.2168 12.4201C7.51101 12.2028 6.67725 12.1597 5.21517 12.1458C5.22161 12.0973 5.23025 12.0489 5.23025 11.9984ZM10.1458 7.21408C10.1587 8.688 10.2329 9.52821 10.4535 10.2243C10.4255 10.2168 10.3975 10.2082 10.3685 10.2028C10.2501 10.1791 10.1264 10.1662 10.0005 10.1662C9.87467 10.1662 9.75201 10.1791 9.63153 10.2028C9.60247 10.2092 9.5745 10.2179 9.54547 10.2254C9.76709 9.5293 9.84131 8.69015 9.8542 7.21623C9.90264 7.22268 9.94999 7.23021 9.99839 7.23021C10.0468 7.23021 10.0963 7.22162 10.1447 7.21514L10.1458 7.21408ZM14.7708 11.9984C14.7708 12.0479 14.7795 12.0952 14.7859 12.1436C13.3109 12.1522 12.4847 12.1813 11.7918 12.39C11.7918 12.3835 11.7961 12.376 11.7972 12.3696C11.8478 12.1275 11.8478 11.8736 11.7972 11.6304C11.7918 11.6025 11.7832 11.5745 11.7757 11.5465C12.4825 11.7767 13.3174 11.8338 14.7848 11.8521C14.7784 11.9005 14.7698 11.9478 14.7698 11.9973L14.7708 11.9984ZM9.0172 11.3378C9.06025 11.2743 9.10974 11.2162 9.16459 11.1614C9.21838 11.1076 9.27757 11.0592 9.3389 11.0172C9.40128 10.9752 9.46906 10.9376 9.54008 10.9085C9.61106 10.8784 9.68532 10.8547 9.7617 10.8397C9.83916 10.8246 9.91878 10.816 10.0016 10.816C10.0845 10.816 10.1641 10.8246 10.2394 10.8397C10.3168 10.8558 10.3921 10.8795 10.4631 10.9085C10.5331 10.9386 10.6009 10.9763 10.6622 11.0161C10.7257 11.0602 10.7848 11.1076 10.8408 11.1646C10.8946 11.2184 10.943 11.2765 10.9838 11.3367C11.0258 11.4002 11.0635 11.468 11.0936 11.5401C11.1237 11.6111 11.1463 11.6842 11.1614 11.7606C11.1775 11.8413 11.1861 11.9187 11.1861 11.9995C11.1861 12.0801 11.1786 12.1597 11.1624 12.2383C11.1452 12.3158 11.1226 12.391 11.0925 12.4621C11.0624 12.5331 11.0247 12.6009 10.9838 12.6621C10.9408 12.7256 10.8913 12.7848 10.8386 12.8386C10.7859 12.8913 10.7278 12.9397 10.6622 12.9838C10.5998 13.0258 10.5331 13.0624 10.4642 13.0925C10.3921 13.1226 10.3179 13.1463 10.2404 13.1614C10.1652 13.1775 10.0845 13.185 10.0027 13.185C9.92093 13.185 9.84022 13.1775 9.76494 13.1614C9.68853 13.1463 9.6143 13.1226 9.54114 13.0914C9.47016 13.0613 9.40238 13.0247 9.33995 12.9828C9.27757 12.9408 9.21838 12.8924 9.16459 12.8375C9.1108 12.7837 9.0624 12.7256 9.01935 12.6621C8.97739 12.5987 8.94083 12.532 8.91071 12.4599C8.88059 12.3889 8.85691 12.3147 8.84184 12.2383C8.81066 12.0844 8.81066 11.9144 8.84184 11.7606C8.85797 11.6842 8.88059 11.61 8.91176 11.539C8.94192 11.468 8.97739 11.4013 9.01935 11.3389H9.0172V11.3378ZM11.3368 10.6525C11.2754 10.5428 11.2216 10.4341 11.1732 10.3244C11.6799 9.92737 12.2189 9.55188 12.8698 9.13018C12.4492 9.77998 12.0748 10.3179 11.6788 10.8214C11.5638 10.7719 11.4508 10.716 11.3357 10.6525H11.3368ZM8.64604 10.6837C8.54061 10.7418 8.43517 10.7934 8.32868 10.8397C7.92737 10.3286 7.54976 9.78643 7.12587 9.13232C7.77997 9.55512 8.31899 9.93058 8.82465 10.3276C8.77191 10.447 8.71276 10.5642 8.64604 10.6837ZM16.2125 11.6703C16.3007 11.7574 16.3491 11.8746 16.3491 11.9984C16.3491 12.2544 16.1415 12.4632 15.8854 12.4632C15.6294 12.4632 15.4206 12.2544 15.4206 11.9984C15.4206 11.7423 15.6294 11.5347 15.8865 11.5347C16.0102 11.5347 16.1264 11.582 16.2135 11.6692L16.2125 11.6703ZM12.3394 11.0301C12.8085 10.4147 13.2561 9.74232 13.795 8.88594C13.837 8.90102 13.88 8.91606 13.9241 8.92575C13.7542 9.63259 13.4185 10.3663 12.9107 11.1205C12.6998 11.0968 12.5126 11.0678 12.3405 11.0301H12.3394ZM14.49 7.50992C14.5783 7.59817 14.6256 7.71435 14.6256 7.83916C14.6256 7.96393 14.5783 8.08015 14.4922 8.16621C14.4029 8.25442 14.2856 8.30282 14.1608 8.30282C14.036 8.30282 13.922 8.25442 13.8338 8.16621C13.6584 7.9919 13.6573 7.68638 13.8359 7.50886C13.922 7.42171 14.0382 7.37436 14.163 7.37436C14.2878 7.37436 14.4051 7.42281 14.4911 7.50992H14.49ZM13.0742 8.07581C13.0839 8.11996 13.099 8.16297 13.113 8.20492C12.2555 8.74394 11.582 9.19366 10.9634 9.66486C10.9258 9.49164 10.8967 9.30444 10.8741 9.09467C11.6304 8.58362 12.3663 8.24688 13.0732 8.07691L13.0742 8.07581ZM9.99945 5.65086C10.2555 5.65086 10.4653 5.85958 10.4653 6.11565C10.4653 6.37169 10.2566 6.57932 9.99945 6.57932C9.87682 6.57932 9.76064 6.53201 9.67239 6.44485C9.58419 6.35665 9.53578 6.24043 9.53578 6.11565C9.53578 5.85958 9.74341 5.65086 9.99945 5.65086ZM9.03552 9.6681C8.41798 9.19686 7.74126 8.74609 6.87628 8.20172C6.89027 8.15976 6.90426 8.11781 6.91285 8.07476C7.62508 8.24473 8.36524 8.58256 9.12588 9.09572C9.1033 9.30554 9.07423 9.49379 9.03552 9.66701V9.6681ZM5.50456 8.16836C5.33135 7.99405 5.33244 7.68528 5.50671 7.51207C5.68746 7.33135 5.98225 7.33135 6.16191 7.51101C6.25121 7.60032 6.29855 7.71649 6.29855 7.84131C6.29855 7.96608 6.25121 8.0812 6.16191 8.16836C6.07475 8.25657 5.95857 8.30497 5.83485 8.30497C5.71114 8.30497 5.59281 8.25657 5.50456 8.16836ZM6.07155 8.92684C6.11565 8.91715 6.15761 8.90208 6.20066 8.88809C6.74178 9.74877 7.19259 10.4244 7.66704 11.0462C7.49382 11.0828 7.30447 11.1108 7.09251 11.1323C6.57935 10.3749 6.24261 9.63689 6.07155 8.9279V8.92684ZM3.65089 11.9995C3.65089 11.8746 3.6993 11.7585 3.78752 11.6703C3.87466 11.5831 3.99193 11.5347 4.11673 11.5358C4.37171 11.5358 4.58042 11.7434 4.58042 11.9995C4.58042 12.2555 4.37278 12.4642 4.11673 12.4642C3.86068 12.4642 3.65089 12.2566 3.65089 12.0005V11.9995Z" fill="white"/>
</g>
</svg>
